<svg xmlns="http://www.w3.org/2000/svg" xmlns:xlink="http://www.w3.org/1999/xlink" viewBox="0 0 412.2 99.61"><defs><style>.cls-1,.cls-4,.cls-5{fill:none;}.cls-2{fill:#424d79;}.cls-3{clip-path:url(#clip-path);}.cls-4,.cls-5{stroke:#424d79;stroke-linecap:round;stroke-linejoin:round;}.cls-4{stroke-width:1.2px;}.cls-5{stroke-width:2px;}</style><clipPath id="clip-path" transform="translate(0 0)"><rect class="cls-1" width="453.07" height="104.52"/></clipPath></defs><g id="Layer_2" data-name="Layer 2"><g id="Layer_1-2" data-name="Layer 1"><path class="cls-2" d="M34.53,35.62h4.35v.87H35.57v2.69h3.06V40H35.57V43.7h-1Z" transform="translate(0 0)"/><path class="cls-2" d="M43,43.7,42.93,43h0a2.15,2.15,0,0,1-1.78.86,1.65,1.65,0,0,1-1.77-1.66c0-1.41,1.25-2.17,3.49-2.16v-.12a1.19,1.19,0,0,0-1.32-1.34A2.84,2.84,0,0,0,40,39l-.24-.7a3.61,3.61,0,0,1,1.91-.51c1.77,0,2.2,1.21,2.2,2.37v2.17A8.32,8.32,0,0,0,44,43.7Zm-.16-3c-1.15,0-2.45.18-2.45,1.31a.93.93,0,0,0,1,1,1.42,1.42,0,0,0,1.4-1,1,1,0,0,0,.06-.33Z" transform="translate(0 0)"/><path class="cls-2" d="M45.58,39.47c0-.6,0-1.09,0-1.57h.92l0,.93h0a2,2,0,0,1,1.82-1.06A1.71,1.71,0,0,1,50,38.93h0a2.35,2.35,0,0,1,.65-.76,2,2,0,0,1,1.28-.4c.77,0,1.91.5,1.91,2.51V43.7h-1V40.42c0-1.12-.4-1.79-1.25-1.79a1.36,1.36,0,0,0-1.25,1,1.63,1.63,0,0,0-.09.53V43.7h-1V40.22c0-.92-.4-1.59-1.21-1.59a1.45,1.45,0,0,0-1.31,1,1.49,1.49,0,0,0-.08.52v3.5h-1Z" transform="translate(0 0)"/><path class="cls-2" d="M56.76,36.27a.65.65,0,0,1-1.3,0,.63.63,0,0,1,.65-.66A.62.62,0,0,1,56.76,36.27ZM55.59,43.7V37.9h1v5.8Z" transform="translate(0 0)"/><path class="cls-2" d="M58.4,35.19h1.05V43.7H58.4Z" transform="translate(0 0)"/><path class="cls-2" d="M62.4,36.27a.65.65,0,0,1-1.3,0,.63.63,0,0,1,.65-.66A.62.62,0,0,1,62.4,36.27ZM61.23,43.7V37.9h1.05v5.8Z" transform="translate(0 0)"/><path class="cls-2" d="M64.62,41a1.87,1.87,0,0,0,2,2,3.8,3.8,0,0,0,1.61-.3l.18.75a4.67,4.67,0,0,1-1.93.36,2.69,2.69,0,0,1-2.86-2.92c0-1.76,1-3.13,2.73-3.13a2.46,2.46,0,0,1,2.4,2.73,4.15,4.15,0,0,1,0,.49Zm3.1-.75a1.51,1.51,0,0,0-1.47-1.72,1.77,1.77,0,0,0-1.62,1.72Z" transform="translate(0 0)"/><path class="cls-2" d="M70.05,39.47c0-.6,0-1.09,0-1.57h.93l.06,1h0a2.14,2.14,0,0,1,1.92-1.09c.8,0,2,.48,2,2.47V43.7H73.93V40.36c0-.94-.35-1.72-1.34-1.72a1.5,1.5,0,0,0-1.42,1.08,1.75,1.75,0,0,0-.07.49V43.7h-1Z" transform="translate(0 0)"/><path class="cls-2" d="M76.66,43.7c0-.39,0-1,0-1.5v-7h1v3.64h0a2.19,2.19,0,0,1,2-1.06c1.44,0,2.46,1.2,2.45,3,0,2.07-1.31,3.1-2.6,3.1a2.08,2.08,0,0,1-1.95-1.09h0l-.05,1Zm1.09-2.32a1.58,1.58,0,0,0,0,.38A1.62,1.62,0,0,0,79.38,43c1.1,0,1.76-.89,1.76-2.23,0-1.16-.6-2.16-1.72-2.16a1.7,1.7,0,0,0-1.61,1.3,2.34,2.34,0,0,0-.06.43Z" transform="translate(0 0)"/><path class="cls-2" d="M88.39,42.12c0,.6,0,1.13,0,1.58H87.5l-.06-.94h0a2.2,2.2,0,0,1-1.92,1.07c-.91,0-2-.5-2-2.54V37.9h1v3.21c0,1.11.34,1.85,1.3,1.85a1.52,1.52,0,0,0,1.39-1,1.57,1.57,0,0,0,.1-.54V37.9h1Z" transform="translate(0 0)"/><path class="cls-2" d="M95.16,35.19v7c0,.52,0,1.11,0,1.5h-.95l-.05-1h0a2.15,2.15,0,0,1-2,1.14c-1.4,0-2.48-1.18-2.48-2.95,0-1.93,1.18-3.11,2.6-3.11a1.94,1.94,0,0,1,1.75.88h0V35.19ZM94.1,40.26a2.18,2.18,0,0,0,0-.44,1.56,1.56,0,0,0-1.53-1.23c-1.09,0-1.74,1-1.74,2.25S91.37,43,92.51,43a1.59,1.59,0,0,0,1.55-1.26,2.09,2.09,0,0,0,0-.45Z" transform="translate(0 0)"/><path class="cls-2" d="M101.92,37.9c0,.42,0,.89,0,1.59v3.37a3.35,3.35,0,0,1-.83,2.65,3.06,3.06,0,0,1-2.11.7A3.76,3.76,0,0,1,97,45.73l.26-.8a3.32,3.32,0,0,0,1.71.45c1.07,0,1.87-.56,1.87-2v-.64h0a2.07,2.07,0,0,1-1.84,1,2.6,2.6,0,0,1-2.48-2.83,2.79,2.79,0,0,1,2.62-3.08,1.92,1.92,0,0,1,1.81,1h0l0-.87Zm-1.1,2.29a1.44,1.44,0,0,0-.06-.48,1.52,1.52,0,0,0-1.47-1.12c-1,0-1.73.85-1.73,2.2,0,1.14.58,2.09,1.72,2.09a1.55,1.55,0,0,0,1.46-1.08,1.87,1.87,0,0,0,.08-.57Z" transform="translate(0 0)"/><path class="cls-2" d="M104.21,41a1.86,1.86,0,0,0,2,2,3.8,3.8,0,0,0,1.61-.3l.18.75a4.67,4.67,0,0,1-1.93.36,2.69,2.69,0,0,1-2.86-2.92c0-1.76,1-3.13,2.72-3.13a2.45,2.45,0,0,1,2.4,2.73,4.68,4.68,0,0,1,0,.49Zm3.09-.75a1.49,1.49,0,0,0-1.46-1.72,1.76,1.76,0,0,0-1.62,1.72Z" transform="translate(0 0)"/><path class="cls-2" d="M110.91,36.23V37.9h1.51v.8h-1.51v3.13c0,.72.2,1.13.79,1.13a2.68,2.68,0,0,0,.61-.07l0,.79a2.73,2.73,0,0,1-.94.14,1.45,1.45,0,0,1-1.14-.44,2.15,2.15,0,0,1-.41-1.51V38.7H109v-.8h.9V36.51Z" transform="translate(0 0)"/><path class="cls-2" d="M34.16,57.71v-.65l.82-.8c2-1.9,2.89-2.91,2.91-4.08a1.4,1.4,0,0,0-1.55-1.53,2.66,2.66,0,0,0-1.66.66l-.33-.74a3.38,3.38,0,0,1,2.2-.79,2.2,2.2,0,0,1,2.39,2.27c0,1.43-1,2.6-2.69,4.18l-.62.58v0h3.5v.88Z" transform="translate(0 0)"/><path class="cls-2" d="M45.49,53.72c0,2.66-1,4.12-2.71,4.12-1.52,0-2.55-1.43-2.58-4s1.13-4,2.71-4S45.49,51.24,45.49,53.72Zm-4.23.12c0,2,.62,3.18,1.58,3.18s1.6-1.26,1.6-3.25-.49-3.18-1.59-3.18C41.93,50.59,41.26,51.72,41.26,53.84Z" transform="translate(0 0)"/><path class="cls-2" d="M50,52.11c0,1.64-.86,2.45-1.87,2.45s-1.81-.78-1.82-2.35.85-2.43,1.88-2.43S50,50.62,50,52.11Zm-2.85.07c0,1,.34,1.75,1,1.75s1-.75,1-1.78-.27-1.74-1-1.74S47.13,51.19,47.13,52.18ZM48,57.84l4.58-8.06h.67l-4.58,8.06Zm7-2.51c0,1.64-.86,2.46-1.85,2.46s-1.82-.78-1.83-2.34S52.22,53,53.26,53,55.05,53.84,55.05,55.33Zm-2.85.07c0,1,.37,1.75,1,1.75s1-.74,1-1.77-.28-1.74-1-1.74S52.2,54.42,52.2,55.4Z" transform="translate(0 0)"/><g class="cls-3"><path class="cls-4" d="M23.52,50.71l-.16.23a3.28,3.28,0,0,1-2.69,1.38H20a3.16,3.16,0,0,1-3.23-3.09V45.75A3.16,3.16,0,0,1,20,42.66h.64A3.27,3.27,0,0,1,23.36,44l.16.24m-9,4.83h5.6m-5.6-3.22h5.6m8.21,1.78a8.42,8.42,0,0,1-8.59,8.23,8.23,8.23,0,1,1,0-16.45A8.41,8.41,0,0,1,28.37,47.66ZM15.5,40.53l.08,0m3.63-1a8.88,8.88,0,0,0-3.63,1m-3.07,2.8a8.15,8.15,0,0,0-1.16,2.8m4.15-5.56a8.52,8.52,0,0,0-3,2.76m-1.22,5.6a7.81,7.81,0,0,0,1.05,2.87m-1.05-2.87a8.28,8.28,0,0,1-.09-1.23,8.12,8.12,0,0,1,.15-1.57M16,37.68H4.68m11.33,0a1.25,1.25,0,0,0,1.28-1.22v-.63A1.25,1.25,0,0,0,16,34.6H2.73a1.25,1.25,0,0,0-1.27,1.23v.63a1.24,1.24,0,0,0,1.27,1.22H4.68m0,2.81h7.66m6.87-1a.58.58,0,0,0,0-.19v-.35A1.25,1.25,0,0,0,18,37.68H16m-11.33,0A1.25,1.25,0,0,0,3.4,38.91v.35a1.25,1.25,0,0,0,1.28,1.23M4,48.89H9.27M4,48.89a1.25,1.25,0,0,0-1.28,1.22v.42A1.25,1.25,0,0,0,4,51.76h8.32M4,46.09H9.27M4,48.89a1.25,1.25,0,0,1-1.28-1.23v-.35A1.25,1.25,0,0,1,4,46.09m0-2.8h6.24M4,43.29a1.25,1.25,0,0,0-1.28,1.22v.35A1.25,1.25,0,0,0,4,46.09m.66-5.6H1.88A1.25,1.25,0,0,0,.6,41.71v.35a1.25,1.25,0,0,0,1.28,1.23H4" transform="translate(0 0)"/></g><path class="cls-2" d="M192.27,75.32h1v7.21h3.46v.87h-4.5Z" transform="translate(0 0)"/><path class="cls-2" d="M201.11,83.4l-.08-.73h0a2.15,2.15,0,0,1-1.78.86,1.65,1.65,0,0,1-1.77-1.66c0-1.41,1.25-2.17,3.49-2.16v-.12a1.19,1.19,0,0,0-1.32-1.34,2.84,2.84,0,0,0-1.51.43l-.24-.7a3.61,3.61,0,0,1,1.91-.51c1.77,0,2.2,1.21,2.2,2.37V82a8.24,8.24,0,0,0,.1,1.39Zm-.16-3c-1.15,0-2.46.18-2.46,1.31a.94.94,0,0,0,1,1,1.42,1.42,0,0,0,1.4-1,.92.92,0,0,0,.06-.33Z" transform="translate(0 0)"/><path class="cls-2" d="M203.68,79.17c0-.6,0-1.09-.05-1.57h.94l.06,1h0a2.14,2.14,0,0,1,1.92-1.09c.8,0,2.05.48,2.05,2.47V83.4h-1.06V80.06c0-.94-.34-1.72-1.34-1.72a1.5,1.5,0,0,0-1.41,1.08,1.44,1.44,0,0,0-.08.49V83.4h-1Z" transform="translate(0 0)"/><path class="cls-2" d="M215.34,77.6c0,.42-.05.89-.05,1.59v3.37a3.35,3.35,0,0,1-.82,2.65,3.09,3.09,0,0,1-2.12.7,3.78,3.78,0,0,1-1.93-.48l.27-.8a3.25,3.25,0,0,0,1.7.45c1.08,0,1.87-.56,1.87-2v-.65h0a2.08,2.08,0,0,1-1.85,1,2.59,2.59,0,0,1-2.47-2.83,2.78,2.78,0,0,1,2.61-3.08,2,2,0,0,1,1.82,1h0l0-.87Zm-1.09,2.29a1.44,1.44,0,0,0-.06-.48,1.53,1.53,0,0,0-1.48-1.12c-1,0-1.72.85-1.72,2.2,0,1.14.57,2.09,1.71,2.09a1.55,1.55,0,0,0,1.47-1.08,1.87,1.87,0,0,0,.08-.57Z" transform="translate(0 0)"/><path class="cls-2" d="M216.39,82.79,219,79.37c.26-.31.5-.58.76-.9v0h-3.14V77.6h4.42v.66l-2.59,3.37c-.24.32-.48.61-.74.91v0h3.39v.84h-4.71Z" transform="translate(0 0)"/><path class="cls-2" d="M222.7,80.69a1.86,1.86,0,0,0,2,2,3.8,3.8,0,0,0,1.61-.3l.18.75a4.72,4.72,0,0,1-1.94.36,2.69,2.69,0,0,1-2.85-2.92c0-1.75,1-3.13,2.72-3.13a2.45,2.45,0,0,1,2.4,2.73,4.68,4.68,0,0,1,0,.49Zm3.09-.75a1.5,1.5,0,0,0-1.46-1.72,1.75,1.75,0,0,0-1.62,1.72Z" transform="translate(0 0)"/><path class="cls-2" d="M229.3,76A.66.66,0,0,1,228,76a.65.65,0,0,1,.66-.66A.63.63,0,0,1,229.3,76Zm-1.18,7.43V77.6h1.06v5.8Z" transform="translate(0 0)"/><path class="cls-2" d="M232.2,75.93V77.6h1.51v.8H232.2v3.13c0,.72.21,1.13.79,1.13a2.78,2.78,0,0,0,.62-.07l0,.79a2.63,2.63,0,0,1-.93.14,1.45,1.45,0,0,1-1.14-.44,2.15,2.15,0,0,1-.41-1.51V78.4h-.9v-.8h.9V76.21Z" transform="translate(0 0)"/><path class="cls-2" d="M237.3,79.77v.78h-3v-.78Z" transform="translate(0 0)"/><path class="cls-2" d="M239.62,75.32V83.4h-1.05V75.32Z" transform="translate(0 0)"/><path class="cls-2" d="M241.51,79.17c0-.6,0-1.09,0-1.57h.93l.06,1h0a2.13,2.13,0,0,1,1.92-1.09c.8,0,2.05.48,2.05,2.47V83.4H245.4V80.06c0-.94-.35-1.72-1.34-1.72a1.5,1.5,0,0,0-1.42,1.08,1.45,1.45,0,0,0-.07.49V83.4h-1.06Z" transform="translate(0 0)"/><path class="cls-2" d="M248.43,77.6l1.14,3.26a15.54,15.54,0,0,1,.46,1.49h0c.13-.48.3-1,.49-1.49l1.13-3.26h1.1l-2.28,5.8h-1l-2.21-5.8Z" transform="translate(0 0)"/><path class="cls-2" d="M254.27,80.69a1.86,1.86,0,0,0,2,2,3.8,3.8,0,0,0,1.61-.3l.18.75a4.67,4.67,0,0,1-1.93.36,2.69,2.69,0,0,1-2.86-2.92c0-1.75,1-3.13,2.72-3.13a2.45,2.45,0,0,1,2.4,2.73,4.68,4.68,0,0,1,0,.49Zm3.09-.75a1.5,1.5,0,0,0-1.46-1.72,1.76,1.76,0,0,0-1.62,1.72Z" transform="translate(0 0)"/><path class="cls-2" d="M259.55,82.32a2.69,2.69,0,0,0,1.39.42c.77,0,1.13-.38,1.13-.86s-.3-.78-1.08-1.07c-1-.37-1.53-1-1.53-1.64a1.78,1.78,0,0,1,2-1.7,2.79,2.79,0,0,1,1.42.36l-.26.76a2.32,2.32,0,0,0-1.19-.33c-.62,0-1,.36-1,.79s.35.69,1.11,1c1,.39,1.52.89,1.52,1.75,0,1-.79,1.74-2.17,1.74a3.27,3.27,0,0,1-1.63-.39Z" transform="translate(0 0)"/><path class="cls-2" d="M265.72,75.93V77.6h1.51v.8h-1.51v3.13c0,.72.2,1.13.79,1.13a2.6,2.6,0,0,0,.61-.07l.05.79a2.73,2.73,0,0,1-.94.14,1.47,1.47,0,0,1-1.14-.44,2.15,2.15,0,0,1-.4-1.51V78.4h-.9v-.8h.9V76.21Z" transform="translate(0 0)"/><path class="cls-2" d="M269.59,76a.65.65,0,0,1-1.3,0,.64.64,0,0,1,.66-.66A.62.62,0,0,1,269.59,76Zm-1.17,7.43V77.6h1.05v5.8Z" transform="translate(0 0)"/><path class="cls-2" d="M272.5,75.93V77.6H274v.8H272.5v3.13c0,.72.2,1.13.79,1.13a2.68,2.68,0,0,0,.61-.07l.05.79a2.73,2.73,0,0,1-.94.14,1.47,1.47,0,0,1-1.14-.44,2.15,2.15,0,0,1-.4-1.51V78.4h-.9v-.8h.9V76.21Z" transform="translate(0 0)"/><path class="cls-2" d="M276.37,76a.65.65,0,0,1-1.3,0,.64.64,0,0,1,.66-.66A.62.62,0,0,1,276.37,76ZM275.2,83.4V77.6h1.05v5.8Z" transform="translate(0 0)"/><path class="cls-2" d="M283.26,80.45a2.83,2.83,0,0,1-2.89,3.08,2.76,2.76,0,0,1-2.78-3,2.83,2.83,0,0,1,2.87-3.08A2.75,2.75,0,0,1,283.26,80.45Zm-4.61.06c0,1.27.73,2.23,1.77,2.23s1.76-.94,1.76-2.25c0-1-.49-2.23-1.74-2.23S278.65,79.41,278.65,80.51Z" transform="translate(0 0)"/><path class="cls-2" d="M284.59,79.17c0-.6,0-1.09,0-1.57h.93l.06,1h0a2.12,2.12,0,0,1,1.91-1.09c.81,0,2.06.48,2.06,2.47V83.4h-1.06V80.06c0-.94-.35-1.72-1.34-1.72a1.5,1.5,0,0,0-1.42,1.08,1.45,1.45,0,0,0-.07.49V83.4h-1.06Z" transform="translate(0 0)"/><path class="cls-2" d="M194.19,90.59h0l-1.35.74-.21-.81,1.71-.91h.9v7.8h-1Z" transform="translate(0 0)"/><path class="cls-2" d="M203.23,93.43c0,2.65-1,4.11-2.71,4.11-1.52,0-2.55-1.43-2.58-4s1.13-4,2.71-4S203.23,90.94,203.23,93.43Zm-4.23.11c0,2,.62,3.18,1.58,3.18s1.6-1.26,1.6-3.25-.49-3.18-1.59-3.18C199.67,90.29,199,91.42,199,93.54Z" transform="translate(0 0)"/><path class="cls-2" d="M207.72,91.81c0,1.64-.86,2.45-1.87,2.45S204,93.48,204,91.91s.85-2.43,1.88-2.43S207.72,90.32,207.72,91.81Zm-2.85.07c0,1,.34,1.75,1,1.75s1-.74,1-1.78-.27-1.74-1-1.74S204.87,90.89,204.87,91.88Zm.91,5.66,4.58-8.06H211l-4.58,8.06Zm7-2.51c0,1.65-.86,2.46-1.85,2.46s-1.82-.78-1.83-2.34.85-2.44,1.89-2.44S212.79,93.54,212.79,95Zm-2.85.07c0,1,.37,1.75,1,1.75s1-.74,1-1.77-.28-1.74-1-1.74S209.94,94.12,209.94,95.1Z" transform="translate(0 0)"/><g class="cls-3"><path class="cls-4" d="M174.69,82.1a2.25,2.25,0,0,0,1.34-.6,2.6,2.6,0,0,0,.86-1.07M173.72,84a2.34,2.34,0,0,1-1.34-.61,2.58,2.58,0,0,1-.86-1.06M176,76l-.09.15a2,2,0,0,1-1.62.87H174a1.94,1.94,0,0,1-1.94-2V72.89a2,2,0,0,1,1.94-2h.38a2,2,0,0,1,1.62.87L176,72m-5.38,3H174m-3.37-2H174m4.71,1a5.05,5.05,0,1,1-5.05-5.07A5.06,5.06,0,0,1,178.74,74Zm-5.05,5.07a6.38,6.38,0,0,1,.61,3.21,8.82,8.82,0,0,1-.61,3.25m7.64,3.5a23.91,23.91,0,0,0-5.4-3.1,5,5,0,0,0-4.32.19,41.33,41.33,0,0,0-4.31,2.66m-5.74,3.82v-2.7h-2.35V99h2.35v-2.7m15.15-3.72,6.73-3.1a1.68,1.68,0,0,1,1.57,3l-7.7,4.66a10.18,10.18,0,0,1-7.95,1.12,26.5,26.5,0,0,0-6.91-.92h-.89m0-5.74,2.94-1.14a4,4,0,0,1,2.87,0,10.62,10.62,0,0,0,4,.78h4a1.35,1.35,0,0,1,0,2.7H169" transform="translate(0 0)"/><path class="cls-2" d="M192.27,1.51h1V8.72h3.46V9.6h-4.5Z" transform="translate(0 0)"/><path class="cls-2" d="M199.07,2.16a.62.62,0,0,1-.67.65.63.63,0,0,1-.64-.65.65.65,0,0,1,.66-.66A.63.63,0,0,1,199.07,2.16ZM197.9,9.6V3.79h1V9.6Z" transform="translate(0 0)"/><path class="cls-2" d="M204.66,8.7h0a2.08,2.08,0,0,1-1.9,1,2.65,2.65,0,0,1-2.46-2.94c0-2.17,1.41-3.13,2.63-3.13a1.91,1.91,0,0,1,1.79,1h0l0-.88h1c0,.49,0,1,0,1.6V12h-1.06Zm0-2.56a1.61,1.61,0,0,0,0-.44,1.54,1.54,0,0,0-1.51-1.2c-1.09,0-1.75.92-1.75,2.23,0,1.15.55,2.16,1.72,2.16a1.57,1.57,0,0,0,1.51-1.15,1.75,1.75,0,0,0,.08-.51Z" transform="translate(0 0)"/><path class="cls-2" d="M212.32,8c0,.6,0,1.13,0,1.59h-.93l-.06-.95h0a2.16,2.16,0,0,1-1.91,1.08c-.92,0-2-.51-2-2.54V3.79h1.06V7c0,1.1.33,1.84,1.29,1.84a1.54,1.54,0,0,0,1.4-1,1.49,1.49,0,0,0,.09-.54V3.79h1.06Z" transform="translate(0 0)"/><path class="cls-2" d="M215.25,2.16a.63.63,0,0,1-.68.65.63.63,0,0,1-.63-.65.64.64,0,0,1,.66-.66A.63.63,0,0,1,215.25,2.16ZM214.07,9.6V3.79h1.06V9.6Z" transform="translate(0 0)"/><path class="cls-2" d="M221.89,1.08v7c0,.51,0,1.1.05,1.5H221l0-1h0a2.14,2.14,0,0,1-2,1.14c-1.4,0-2.48-1.19-2.48-2.95,0-1.93,1.19-3.12,2.6-3.12a1.93,1.93,0,0,1,1.75.89h0V1.08Zm-1,5.07a2.2,2.2,0,0,0-.05-.44,1.55,1.55,0,0,0-1.52-1.22c-1.1,0-1.74,1-1.74,2.24s.57,2.15,1.71,2.15a1.59,1.59,0,0,0,1.55-1.26,2.24,2.24,0,0,0,.05-.46Z" transform="translate(0 0)"/><path class="cls-2" d="M224.82,2.16a.65.65,0,1,1-1.3,0,.64.64,0,0,1,.65-.66A.63.63,0,0,1,224.82,2.16ZM223.65,9.6V3.79h1V9.6Z" transform="translate(0 0)"/><path class="cls-2" d="M227.73,2.13V3.79h1.51V4.6h-1.51V7.73c0,.72.2,1.12.79,1.12a2.21,2.21,0,0,0,.61-.07l.05.79a2.48,2.48,0,0,1-.94.15,1.46,1.46,0,0,1-1.14-.45,2.13,2.13,0,0,1-.41-1.51V4.6h-.9V3.79h.9V2.4Z" transform="translate(0 0)"/><path class="cls-2" d="M233.64,9.6l-.08-.73h0a2.17,2.17,0,0,1-1.77.86A1.66,1.66,0,0,1,230,8.06c0-1.4,1.25-2.17,3.49-2.16V5.78a1.19,1.19,0,0,0-1.32-1.34,2.93,2.93,0,0,0-1.51.43l-.24-.69a3.55,3.55,0,0,1,1.91-.52c1.77,0,2.2,1.21,2.2,2.37V8.21a8.4,8.4,0,0,0,.1,1.39Zm-2.91-7.45a.61.61,0,0,1,.61-.61.59.59,0,0,1,.59.61.6.6,0,0,1-.59.61A.61.61,0,0,1,230.73,2.15Zm2.76,4.49c-1.16,0-2.46.17-2.46,1.3a.93.93,0,0,0,1,1,1.45,1.45,0,0,0,1.41-1,1.35,1.35,0,0,0,.06-.34ZM233,2.15a.6.6,0,0,1,.6-.61.58.58,0,0,1,.58.61.59.59,0,1,1-1.18,0Z" transform="translate(0 0)"/><path class="cls-2" d="M237.43,2.13V3.79H239V4.6h-1.52V7.73c0,.72.21,1.12.8,1.12a2.21,2.21,0,0,0,.61-.07l0,.79a2.39,2.39,0,0,1-.93.15,1.46,1.46,0,0,1-1.14-.45,2.13,2.13,0,0,1-.41-1.51V4.6h-.9V3.79h.9V2.4Z" transform="translate(0 0)"/><path class="cls-2" d="M240,8.52a2.79,2.79,0,0,0,1.39.42c.77,0,1.13-.39,1.13-.87s-.3-.78-1.08-1.06c-1-.37-1.54-1-1.54-1.65a1.8,1.8,0,0,1,2-1.7,2.94,2.94,0,0,1,1.43.36l-.27.77a2.22,2.22,0,0,0-1.19-.34c-.62,0-1,.36-1,.79s.35.7,1.11,1c1,.38,1.52.88,1.52,1.75s-.79,1.74-2.17,1.74a3.27,3.27,0,0,1-1.63-.4Z" transform="translate(0 0)"/><path class="cls-2" d="M244.89,5.6c0-.68,0-1.27,0-1.81h.92l0,1.14h0a1.74,1.74,0,0,1,1.6-1.27.91.91,0,0,1,.3,0v1a1.86,1.86,0,0,0-.36,0A1.47,1.47,0,0,0,246,6a2.38,2.38,0,0,0,0,.49V9.6h-1Z" transform="translate(0 0)"/><path class="cls-2" d="M249.28,6.89a1.85,1.85,0,0,0,2,2,3.83,3.83,0,0,0,1.61-.3l.18.76a4.88,4.88,0,0,1-1.93.36,2.7,2.7,0,0,1-2.86-2.93c0-1.75,1-3.13,2.72-3.13a2.46,2.46,0,0,1,2.4,2.73,4.92,4.92,0,0,1,0,.5Zm3.09-.76a1.5,1.5,0,0,0-1.46-1.71,1.74,1.74,0,0,0-1.62,1.71Z" transform="translate(0 0)"/><path class="cls-2" d="M254.56,8.52a2.79,2.79,0,0,0,1.39.42c.77,0,1.13-.39,1.13-.87S256.78,7.29,256,7c-1.05-.37-1.54-1-1.54-1.65a1.79,1.79,0,0,1,2-1.7,2.91,2.91,0,0,1,1.43.36l-.26.77a2.22,2.22,0,0,0-1.19-.34c-.62,0-1,.36-1,.79s.35.7,1.1,1c1,.38,1.53.88,1.53,1.75s-.8,1.74-2.17,1.74a3.34,3.34,0,0,1-1.64-.4Z" transform="translate(0 0)"/><path class="cls-2" d="M260,6.89a1.86,1.86,0,0,0,2,2,3.8,3.8,0,0,0,1.61-.3l.18.76a4.84,4.84,0,0,1-1.93.36A2.7,2.7,0,0,1,259,6.79c0-1.75,1-3.13,2.73-3.13a2.46,2.46,0,0,1,2.4,2.73,4.36,4.36,0,0,1,0,.5Zm3.1-.76a1.5,1.5,0,0,0-1.47-1.71,1.76,1.76,0,0,0-1.62,1.71Z" transform="translate(0 0)"/><path class="cls-2" d="M265.47,5.6c0-.68,0-1.27-.05-1.81h.92l0,1.14h.05A1.74,1.74,0,0,1,268,3.66a.91.91,0,0,1,.3,0v1a1.86,1.86,0,0,0-.36,0A1.47,1.47,0,0,0,266.56,6a2.38,2.38,0,0,0-.05.49V9.6h-1Z" transform="translate(0 0)"/><path class="cls-2" d="M270.09,3.79l1.14,3.26a15.54,15.54,0,0,1,.46,1.49h0c.13-.48.3-1,.49-1.49l1.13-3.26h1.1L272.17,9.6h-1L269,3.79Z" transform="translate(0 0)"/><path class="cls-2" d="M275.93,6.89a1.86,1.86,0,0,0,2,2,3.8,3.8,0,0,0,1.61-.3l.18.76a4.84,4.84,0,0,1-1.93.36,2.7,2.7,0,0,1-2.86-2.93c0-1.75,1-3.13,2.72-3.13A2.46,2.46,0,0,1,280,6.39a4.92,4.92,0,0,1,0,.5ZM279,6.13a1.49,1.49,0,0,0-1.46-1.71,1.75,1.75,0,0,0-1.62,1.71Z" transform="translate(0 0)"/></g><path class="cls-2" d="M194.19,16.78h0l-1.35.74-.21-.81,1.71-.91h.9v7.8h-1Z" transform="translate(0 0)"/><path class="cls-2" d="M203.23,19.62c0,2.65-1,4.11-2.71,4.11-1.52,0-2.55-1.43-2.58-4s1.13-4,2.71-4S203.23,17.13,203.23,19.62Zm-4.23.11c0,2,.62,3.18,1.58,3.18s1.6-1.26,1.6-3.25-.49-3.18-1.59-3.18C199.67,16.48,199,17.61,199,19.73Z" transform="translate(0 0)"/><path class="cls-2" d="M207.72,18c0,1.64-.86,2.45-1.87,2.45S204,19.68,204,18.1s.85-2.43,1.88-2.43S207.72,16.51,207.72,18Zm-2.85.07c0,1,.34,1.75,1,1.75s1-.74,1-1.78-.27-1.73-1-1.73S204.87,17.08,204.87,18.07Zm.91,5.66,4.58-8.06H211l-4.58,8.06Zm7-2.51c0,1.65-.86,2.46-1.85,2.46s-1.82-.78-1.83-2.34S210,18.9,211,18.9,212.79,19.73,212.79,21.22Zm-2.85.07c0,1,.37,1.76,1,1.76s1-.75,1-1.78-.28-1.74-1-1.74S209.94,20.31,209.94,21.29Z" transform="translate(0 0)"/><g class="cls-3"><path class="cls-4" d="M174.61,4.84a6.32,6.32,0,1,0,0,4.13m1.88-3.53,1.83,1.47-1.83,1.47m-3.58-1.47h4.72m-6,2.52-.12.18a2.42,2.42,0,0,1-2,1.08H169a2.42,2.42,0,0,1-2.43-2.42V5.55A2.43,2.43,0,0,1,169,3.12h.49a2.44,2.44,0,0,1,2,1.08l.12.18m-6.75,3.79h4.22m-4.22-2.52h4.22m-9.72,12V15.18h-2.13v8.2h2.13V21M173,17.61l6.1-2.79a1.51,1.51,0,0,1,1.42,2.67l-7,4.19a9.31,9.31,0,0,1-7.2,1,24,24,0,0,0-6.25-.83h-.8m0-5.16,2.66-1a3.51,3.51,0,0,1,2.59,0,9.85,9.85,0,0,0,3.64.69h3.6a1.22,1.22,0,0,1,0,2.44h-5.77" transform="translate(0 0)"/></g><polyline class="cls-5" points="148.74 12.99 134.92 12.99 134.92 84.26 148.74 84.26"/><line class="cls-5" x1="118.82" y1="39.53" x2="133.82" y2="39.53"/><polyline class="cls-5" points="328.37 44.26 314.55 44.26 314.55 94.98 328.37 94.98"/><line class="cls-5" x1="298.44" y1="85.22" x2="313.45" y2="85.22"/><path class="cls-2" d="M357.36,40.69v8.09h-1.05V40.69Z" transform="translate(0 0)"/><path class="cls-2" d="M359.25,44.54c0-.6,0-1.09,0-1.57h.92l.05.94h0A2,2,0,0,1,362,42.84,1.71,1.71,0,0,1,363.68,44h0a2.42,2.42,0,0,1,.65-.75,2,2,0,0,1,1.28-.41c.77,0,1.91.51,1.91,2.52v3.42h-1V45.49c0-1.11-.41-1.79-1.26-1.79a1.38,1.38,0,0,0-1.25,1,2.11,2.11,0,0,0-.08.53v3.59h-1V45.3c0-.92-.41-1.6-1.21-1.6a1.45,1.45,0,0,0-1.31,1.06,1.49,1.49,0,0,0-.08.52v3.5h-1Z" transform="translate(0 0)"/><path class="cls-2" d="M369.26,44.54c0-.6,0-1.09-.05-1.57h.93l.05.94h0A2,2,0,0,1,372,42.84,1.72,1.72,0,0,1,373.69,44h0a2.42,2.42,0,0,1,.65-.75,2,2,0,0,1,1.28-.41c.77,0,1.91.51,1.91,2.52v3.42h-1V45.49c0-1.11-.41-1.79-1.26-1.79a1.38,1.38,0,0,0-1.25,1,1.74,1.74,0,0,0-.08.53v3.59h-1V45.3c0-.92-.41-1.6-1.21-1.6a1.44,1.44,0,0,0-1.31,1.06,1.5,1.5,0,0,0-.09.52v3.5h-1Z" transform="translate(0 0)"/><path class="cls-2" d="M384.52,45.83a2.84,2.84,0,0,1-2.89,3.08,2.76,2.76,0,0,1-2.78-3,2.83,2.83,0,0,1,2.88-3.08A2.74,2.74,0,0,1,384.52,45.83Zm-4.6.06c0,1.27.73,2.23,1.76,2.23s1.76-.95,1.76-2.26c0-1-.49-2.23-1.73-2.23S379.92,44.78,379.92,45.89Z" transform="translate(0 0)"/><path class="cls-2" d="M385.81,48.78c0-.4.05-1,.05-1.5v-7h1v3.65h0a2.15,2.15,0,0,1,2-1.07c1.44,0,2.46,1.2,2.45,3,0,2.08-1.31,3.11-2.6,3.11a2.06,2.06,0,0,1-1.94-1.09h0l0,1Zm1.09-2.33a2.18,2.18,0,0,0,.05.38,1.62,1.62,0,0,0,1.58,1.24c1.11,0,1.77-.9,1.77-2.23,0-1.16-.6-2.16-1.73-2.16A1.69,1.69,0,0,0,387,45a2.34,2.34,0,0,0-.06.43Z" transform="translate(0 0)"/><path class="cls-2" d="M393.86,41.34a.62.62,0,0,1-.67.65.63.63,0,0,1-.64-.65.65.65,0,0,1,.66-.66A.63.63,0,0,1,393.86,41.34Zm-1.17,7.44V43h1.05v5.81Z" transform="translate(0 0)"/><path class="cls-2" d="M395.49,40.26h1.06v8.52h-1.06Z" transform="translate(0 0)"/><path class="cls-2" d="M399.5,41.34a.62.62,0,0,1-.67.65.63.63,0,0,1-.64-.65.65.65,0,0,1,.66-.66A.63.63,0,0,1,399.5,41.34Zm-1.17,7.44V43h1.05v5.81Z" transform="translate(0 0)"/><path class="cls-2" d="M401.72,46.07a1.86,1.86,0,0,0,2,2,3.8,3.8,0,0,0,1.61-.3l.18.76a4.67,4.67,0,0,1-1.93.36A2.7,2.7,0,0,1,400.71,46c0-1.75,1-3.13,2.73-3.13a2.47,2.47,0,0,1,2.4,2.74,4.35,4.35,0,0,1,0,.49Zm3.1-.76a1.5,1.5,0,0,0-1.47-1.71,1.76,1.76,0,0,0-1.62,1.71Z" transform="translate(0 0)"/><path class="cls-2" d="M407.15,44.54c0-.6,0-1.09,0-1.57H408l.06,1h0A2.13,2.13,0,0,1,410,42.84c.8,0,2,.48,2,2.47v3.47H411V45.43c0-.93-.35-1.71-1.34-1.71a1.5,1.5,0,0,0-1.42,1.08,1.45,1.45,0,0,0-.07.49v3.49h-1.05Z" transform="translate(0 0)"/><g class="cls-3"><path class="cls-4" d="M348.31,44v7.63H337.09V44m1.25,0,4.36-4.64L347.06,44m-8.72,0h-2.81l7.17-7.62L349.87,44h-2.81m-6.23,7.3V48a1.87,1.87,0,1,1,3.74,0v3.32" transform="translate(0 0)"/></g><path class="cls-2" d="M358,87.83v8.09h-1.05V87.83Z" transform="translate(0 0)"/><path class="cls-2" d="M359.88,91.68c0-.59,0-1.09-.05-1.57h.94l.06,1h0A2.14,2.14,0,0,1,362.77,90c.81,0,2.05.48,2.05,2.47v3.47h-1.05V92.57c0-.93-.35-1.71-1.35-1.71A1.5,1.5,0,0,0,361,91.94a1.45,1.45,0,0,0-.07.49v3.49h-1.06Z" transform="translate(0 0)"/><path class="cls-2" d="M366.79,90.11l1.14,3.27a12.53,12.53,0,0,1,.47,1.48h0c.13-.48.3-1,.49-1.48l1.13-3.27h1.1l-2.28,5.81h-1l-2.2-5.81Z" transform="translate(0 0)"/><path class="cls-2" d="M372.64,93.21a1.85,1.85,0,0,0,2,2,3.83,3.83,0,0,0,1.61-.3l.18.76a4.72,4.72,0,0,1-1.94.36,2.7,2.7,0,0,1-2.85-2.93c0-1.75,1-3.13,2.72-3.13a2.46,2.46,0,0,1,2.4,2.74,2.81,2.81,0,0,1,0,.49Zm3.09-.76a1.5,1.5,0,0,0-1.46-1.71,1.74,1.74,0,0,0-1.62,1.71Z" transform="translate(0 0)"/><path class="cls-2" d="M377.92,94.84a2.79,2.79,0,0,0,1.39.42c.77,0,1.13-.38,1.13-.87s-.3-.77-1.08-1.06c-1.05-.37-1.54-1-1.54-1.65a1.8,1.8,0,0,1,2-1.7,2.9,2.9,0,0,1,1.42.36l-.26.77a2.31,2.31,0,0,0-1.19-.34c-.62,0-1,.36-1,.79s.35.7,1.1,1c1,.38,1.53.89,1.53,1.75,0,1-.8,1.74-2.17,1.74a3.34,3.34,0,0,1-1.64-.4Z" transform="translate(0 0)"/><path class="cls-2" d="M384.09,88.45v1.66h1.51v.81h-1.51v3.13c0,.72.2,1.13.79,1.13a2.13,2.13,0,0,0,.61-.08l.05.79a2.48,2.48,0,0,1-.94.15,1.46,1.46,0,0,1-1.14-.45,2.13,2.13,0,0,1-.41-1.51V90.92h-.9v-.81h.9V88.72Z" transform="translate(0 0)"/><path class="cls-2" d="M386.79,91.68c0-.59,0-1.09-.05-1.57h.92l0,.94h0A2,2,0,0,1,389.57,90a1.71,1.71,0,0,1,1.64,1.16h0a2.39,2.39,0,0,1,.64-.75,2,2,0,0,1,1.29-.41c.76,0,1.9.51,1.9,2.52v3.42h-1V92.63c0-1.11-.41-1.78-1.26-1.78a1.34,1.34,0,0,0-1.24,1,1.61,1.61,0,0,0-.09.52v3.59h-1V92.44c0-.92-.41-1.59-1.21-1.59a1.44,1.44,0,0,0-1.31,1.05,1.49,1.49,0,0,0-.08.52v3.5h-1Z" transform="translate(0 0)"/><path class="cls-2" d="M397.38,93.21a1.86,1.86,0,0,0,2,2,3.8,3.8,0,0,0,1.61-.3l.18.76a4.67,4.67,0,0,1-1.93.36,2.7,2.7,0,0,1-2.86-2.93c0-1.75,1-3.13,2.73-3.13a2.47,2.47,0,0,1,2.4,2.74,4.35,4.35,0,0,1,0,.49Zm3.1-.76A1.5,1.5,0,0,0,399,90.74a1.76,1.76,0,0,0-1.62,1.71Z" transform="translate(0 0)"/><path class="cls-2" d="M402.81,91.68c0-.59,0-1.09-.05-1.57h.93l.06,1h0A2.13,2.13,0,0,1,405.7,90c.8,0,2.05.48,2.05,2.47v3.47h-1.06V92.57c0-.93-.35-1.71-1.34-1.71a1.5,1.5,0,0,0-1.42,1.08,1.45,1.45,0,0,0-.07.49v3.49h-1.05Z" transform="translate(0 0)"/><path class="cls-2" d="M410.69,88.45v1.66h1.51v.81h-1.51v3.13c0,.72.2,1.13.79,1.13a2.08,2.08,0,0,0,.61-.08l.05.79a2.42,2.42,0,0,1-.93.15,1.48,1.48,0,0,1-1.15-.45,2.18,2.18,0,0,1-.4-1.51V90.92h-.9v-.81h.9V88.72Z" transform="translate(0 0)"/><g class="cls-3"><path class="cls-4" d="M342.52,79a3.64,3.64,0,0,1,1.12,2.48,3.45,3.45,0,0,1-2.67-.26,3.61,3.61,0,0,1-1.12-2.48A3.45,3.45,0,0,1,342.52,79Zm3.66,1.54a3.47,3.47,0,0,1-2.58.75,3.68,3.68,0,0,1,.66-2.65,3.48,3.48,0,0,1,2.58-.75A3.62,3.62,0,0,1,346.18,80.57Zm.27,14-.11.19a2.4,2.4,0,0,1-2,1.08h-.47a2.4,2.4,0,0,1-2.38-2.43V90.71a2.4,2.4,0,0,1,2.38-2.43h.47a2.39,2.39,0,0,1,2,1.09l.11.18m-6.6,3.79H344m-4.13-2.53H344m2-4.61a6.32,6.32,0,1,1-3.3-.36c.85-.14,2.84-.83,1-4.5" transform="translate(0 0)"/></g></g></g></svg>
