<?xml version="1.0" encoding="utf-8"?>
<!-- Generator: Adobe Illustrator 16.0.3, SVG Export Plug-In . SVG Version: 6.00 Build 0)  -->
<!DOCTYPE svg PUBLIC "-//W3C//DTD SVG 1.1//EN" "http://www.w3.org/Graphics/SVG/1.1/DTD/svg11.dtd">
<svg version="1.1" id="Ebene_1" xmlns="http://www.w3.org/2000/svg" xmlns:xlink="http://www.w3.org/1999/xlink" x="0px" y="0px"
	 width="221.75px" height="57.25px" viewBox="0 0 221.75 57.25" enable-background="new 0 0 221.75 57.25" xml:space="preserve">
<g>
	<defs>
		<path id="SVGID_1_" d="M81.918,54.054c4.95-0.07,29.327-5.123,28.511-7.08c-0.819-1.96-6.97-4.867-10.502-4.095
			c-3.529,0.775-13.481,4.955-19.087,4.903c-10.623-0.101-17.038-9.932-17.038-9.932S72.109,54.189,81.918,54.054"/>
	</defs>
	<clipPath id="SVGID_2_">
		<use xlink:href="#SVGID_1_"  overflow="visible"/>
	</clipPath>

		<linearGradient id="SVGID_3_" gradientUnits="userSpaceOnUse" x1="-7.25" y1="60.248" x2="-6.25" y2="60.248" gradientTransform="matrix(46.6465 0 0 -46.6465 401.9995 2856.4194)">
		<stop  offset="0" style="stop-color:#6CBB83"/>
		<stop  offset="0.5" style="stop-color:#009C40"/>
		<stop  offset="1" style="stop-color:#008B41"/>
	</linearGradient>
	<rect x="63.802" y="37.851" clip-path="url(#SVGID_2_)" fill="url(#SVGID_3_)" width="47.443" height="16.339"/>
</g>
<g>
	<defs>
		<rect id="SVGID_4_" x="-7.25" y="-8.75" width="231" height="69"/>
	</defs>
	<clipPath id="SVGID_5_">
		<use xlink:href="#SVGID_4_"  overflow="visible"/>
	</clipPath>
	<path clip-path="url(#SVGID_5_)" fill="#1D71B8" d="M3.029,15.052h8.131c4.884,0,8.553,3.063,8.553,9.319
		c0,5.464-2.798,9.529-8.553,9.529H3.029V15.052z M7.174,30.416h3.695c2.403,0,4.7-1.479,4.7-5.649c0-3.802-1.321-6.23-5.438-6.23
		H7.174V30.416z"/>
	<polygon clip-path="url(#SVGID_5_)" fill="#1D71B8" points="23.916,15.052 37.168,15.052 37.168,18.537 28.061,18.537
		28.061,22.892 35.953,22.892 35.953,26.113 28.061,26.113 28.061,33.9 23.916,33.9 	"/>
	<polygon clip-path="url(#SVGID_5_)" fill="#1D71B8" points="40.895,15.052 45.04,15.052 45.04,22.866 52.404,15.052 57.579,15.052
		50.212,22.496 58.291,33.9 53.09,33.9 47.416,25.427 45.04,27.829 45.04,33.9 40.895,33.9 	"/>
	<path clip-path="url(#SVGID_5_)" fill="#3DAA35" d="M70.495,20.253h3.616l-0.369,1.69l0.053,0.052
		c0.844-1.478,2.428-2.111,4.091-2.111c3.273,0,5.174,2.111,5.174,5.385c0,4.487-2.376,9-7.418,9c-1.584,0-3.247-0.686-3.828-2.19
		h-0.079l-1.425,6.626h-3.749L70.495,20.253z M72.527,28.489c0,1.741,0.871,2.956,2.692,2.956c2.826,0,4.092-3.3,4.092-5.702
		c0-1.637-0.897-3.036-2.666-3.036C73.847,22.708,72.527,26.14,72.527,28.489"/>
	<path clip-path="url(#SVGID_5_)" fill="#3DAA35" d="M88.107,20.253h3.563l-0.553,2.455l0.053,0.053
		c0.844-1.875,2.692-2.878,4.698-2.878c0.396,0,0.765,0.027,1.162,0.079l-0.766,3.644c-0.528-0.106-1.056-0.238-1.584-0.238
		c-2.878,0-3.907,2.164-4.408,4.488l-1.268,6.044h-3.748L88.107,20.253z"/>
	<path clip-path="url(#SVGID_5_)" fill="#3DAA35" d="M105.269,19.883c3.749,0,6.362,1.848,6.362,5.781
		c0,4.805-2.982,8.606-7.946,8.606c-3.801,0-6.256-1.98-6.256-5.888C97.429,23.763,100.412,19.883,105.269,19.883 M103.87,31.445
		c2.798,0,4.013-3.432,4.013-5.728c0-1.822-0.792-3.01-2.746-3.01c-2.746,0-3.959,3.379-3.959,5.675
		C101.178,29.993,102.101,31.445,103.87,31.445"/>
	<polygon clip-path="url(#SVGID_5_)" fill="#1D71B8" points="126.659,15.052 141.046,15.052 140.333,18.537 130.091,18.537
		129.246,22.575 138.723,22.575 138.036,25.796 128.56,25.796 127.583,30.416 137.983,30.416 137.244,33.9 122.699,33.9 	"/>
	<path clip-path="url(#SVGID_5_)" fill="#1D71B8" d="M144.271,20.253h3.59l-0.422,1.9h0.053c1.214-1.504,2.824-2.27,4.777-2.27
		c2.588,0,3.986,1.294,3.986,3.669c0,0.555-0.29,1.875-0.396,2.35l-1.689,7.998h-3.749l1.663-7.998
		c0.105-0.396,0.238-1.294,0.238-1.663c0-0.819-0.925-1.399-1.796-1.399c-2.27,0-3.432,1.9-3.827,3.801l-1.531,7.259h-3.748
		L144.271,20.253z"/>
	<path clip-path="url(#SVGID_5_)" fill="#1D71B8" d="M163.072,27.987c-0.026,0.343-0.026,0.581-0.026,0.792
		c0,1.584,0.977,2.666,3.009,2.666c1.505,0,2.244-1.003,2.798-1.874h3.749c-1.189,3.063-3.142,4.699-7.074,4.699
		c-3.644,0-6.072-2.086-6.072-5.966c0-4.356,2.878-8.421,7.523-8.421c3.802,0,6.362,2.006,6.362,5.966
		c0,0.739-0.079,1.478-0.212,2.138H163.072z M169.724,25.611c0-1.399-0.343-2.904-2.534-2.904c-2.112,0-3.167,1.373-3.722,2.904
		H169.724z"/>
	<path clip-path="url(#SVGID_5_)" fill="#1D71B8" d="M178.202,20.253h3.563l-0.553,2.455l0.053,0.053
		c0.845-1.875,2.692-2.878,4.698-2.878c0.396,0,0.766,0.027,1.162,0.079l-0.766,3.644c-0.528-0.106-1.057-0.238-1.584-0.238
		c-2.878,0-3.907,2.164-4.408,4.488l-1.269,6.044h-3.747L178.202,20.253z"/>
	<path clip-path="url(#SVGID_5_)" fill="#1D71B8" d="M200.115,33.188c-0.924,4.145-3.009,5.887-7.523,5.887
		c-2.771,0-5.834-1.188-5.834-4.461h3.749c-0.053,1.372,1.24,1.953,2.455,1.953c2.376,0,3.062-2.086,3.801-4.752l-0.053-0.052
		c-0.977,1.293-2.217,1.926-3.748,1.926c-3.247,0-5.253-2.217-5.253-5.569c0-3.986,2.508-8.236,6.89-8.236
		c1.874,0,3.405,0.66,4.17,2.455h0.054l0.422-2.086h3.59L200.115,33.188z M191.457,27.855c0,1.61,0.792,3.009,2.534,3.009
		c2.692,0,3.986-2.877,3.986-5.2c0-1.716-0.871-2.957-2.692-2.957C192.777,22.708,191.457,25.665,191.457,27.855"/>
	<path clip-path="url(#SVGID_5_)" fill="#1D71B8" d="M210.363,35.827c-1.294,2.35-2.481,2.878-5.307,2.878
		c-0.659,0-1.346-0.106-2.005-0.133l0.633-3.114c0.501,0,1.029,0.158,1.531,0.158c1.769,0,1.979-1.136,2.481-1.848l-2.429-13.516
		h3.854l1.188,9.767h0.053l4.725-9.767h3.96L210.363,35.827z"/>
</g>
<g>
	<defs>
		<path id="SVGID_6_" d="M64.172,8.815c0.77,2.189,7.301,5.756,11.204,5.135c3.901-0.619,15.043-4.547,21.149-4.134
			c11.596,0.786,17.973,11.927,17.973,11.927S106.471,3.379,95.749,2.9c-0.156-0.007-0.329-0.01-0.519-0.01
			C88.816,2.89,63.424,6.689,64.172,8.815"/>
	</defs>
	<clipPath id="SVGID_7_">
		<use xlink:href="#SVGID_6_"  overflow="visible"/>
	</clipPath>

		<linearGradient id="SVGID_8_" gradientUnits="userSpaceOnUse" x1="-7.25" y1="60.2324" x2="-6.25" y2="60.2324" gradientTransform="matrix(50.9279 2.9691 2.9691 -50.9279 254.4357 3099.8704)">
		<stop  offset="0" style="stop-color:#FFE60E"/>
		<stop  offset="1" style="stop-color:#FFD319"/>
	</linearGradient>
	<polygon clip-path="url(#SVGID_7_)" fill="url(#SVGID_8_)" points="63.597,-0.078 115.594,2.954 114.325,24.71 62.329,21.679 	"/>
</g>
</svg>
