<svg width="114" height="26" viewBox="0 0 114 26" fill="none" xmlns="http://www.w3.org/2000/svg">
<g clip-path="url(#clip0)">
<path d="M8.98145 15.8311H11.8851C12.5626 15.8311 13.0465 15.8797 13.3853 15.977C13.8692 16.1229 14.2564 16.3661 14.5951 16.7065C14.9339 17.047 15.1759 17.4848 15.3695 17.9711C15.563 18.4575 15.6114 19.0898 15.6114 19.8194C15.6114 20.4517 15.5146 21.0353 15.3695 21.5217C15.1759 22.1054 14.8855 22.5431 14.5468 22.9322C14.2564 23.224 13.9176 23.4186 13.4337 23.5645C13.0949 23.6618 12.611 23.7104 12.0303 23.7104H9.02984V15.8311H8.98145ZM10.5784 17.1929V22.4458H11.7883C12.2238 22.4458 12.5626 22.3972 12.7562 22.3486C12.9981 22.2999 13.2401 22.154 13.3853 22.0081C13.5789 21.8622 13.6757 21.619 13.8208 21.2299C13.9176 20.8894 13.966 20.403 13.966 19.7707C13.966 19.1384 13.9176 18.7007 13.8208 18.3602C13.7241 18.0198 13.5789 17.7766 13.3853 17.582C13.1917 17.3875 12.9498 17.2902 12.6594 17.1929C12.4174 17.1443 11.9819 17.0956 11.3528 17.0956H10.5784V17.1929Z" fill="#1E2A4D"/>
<path d="M16.676 23.7591V15.8311H22.0962V17.1929H18.273V19.0898H21.5638V20.4517H18.273V23.8077H16.676V23.7591Z" fill="#1E2A4D"/>
<path d="M23.1125 23.7591V15.8311H24.7096V19.333L27.9036 15.8311H30.0329L27.0809 18.8953L30.2265 23.7104H28.1455L25.9678 20.0139L24.6612 21.3272V23.7104H23.1125V23.7591Z" fill="#1E2A4D"/>
<path d="M39.1309 23.7591V15.8311H40.7279V19.333L43.9219 15.8311H46.0512L43.0992 18.8953L46.2448 23.7104H44.2122L42.0345 20.0139L40.7279 21.3272V23.7104H39.1309V23.7591Z" fill="#1E2A4D"/>
<path d="M46.7771 15.8311H48.3741V20.1112C48.3741 20.7921 48.3741 21.2299 48.4225 21.4244C48.4709 21.7649 48.6645 22.0081 48.9064 22.2026C49.1484 22.3972 49.5356 22.4945 49.9711 22.4945C50.4066 22.4945 50.7454 22.3972 50.9874 22.2026C51.2293 22.0081 51.3745 21.8135 51.4229 21.5217C51.4713 21.2299 51.4713 20.7921 51.4713 20.1598V15.7824H53.0683V19.9167C53.0683 20.8894 53.0199 21.5217 52.9231 21.9108C52.8263 22.2999 52.6812 22.6404 52.4392 22.8836C52.1972 23.1754 51.9069 23.37 51.5197 23.5159C51.1326 23.6618 50.6486 23.7591 50.0195 23.7591C49.2452 23.7591 48.7129 23.6618 48.3257 23.5159C47.9386 23.3213 47.6482 23.1268 47.4062 22.8349C47.1642 22.5431 47.0191 22.2513 46.9707 21.9595C46.8739 21.5217 46.8255 20.8408 46.8255 19.9653V15.8311H46.7771ZM48.1321 15.3933V14.0801H49.4388V15.3933H48.1321ZM50.455 15.3933V14.0801H51.7617V15.3933H50.455Z" fill="#1E2A4D"/>
<path d="M59.5047 20.8406L61.0533 21.327C60.8113 22.2025 60.4242 22.8348 59.8918 23.2726C59.3595 23.7103 58.6336 23.9049 57.8109 23.9049C56.7462 23.9049 55.9235 23.5644 55.246 22.8348C54.5685 22.1052 54.2297 21.1325 54.2297 19.8679C54.2297 18.5547 54.5685 17.5333 55.246 16.8037C55.9235 16.0741 56.7946 15.7336 57.9077 15.7336C58.8756 15.7336 59.6499 16.0255 60.279 16.6091C60.6177 16.9496 60.9081 17.436 61.1017 18.0683L59.5047 18.4574C59.4079 18.0683 59.2143 17.7278 58.924 17.4846C58.6336 17.2414 58.2464 17.1441 57.8593 17.1441C57.2786 17.1441 56.7946 17.3387 56.4559 17.7764C56.0687 18.2142 55.9235 18.8951 55.9235 19.8192C55.9235 20.8406 56.1171 21.5216 56.4559 21.9593C56.7946 22.3971 57.2786 22.5916 57.8593 22.5916C58.2948 22.5916 58.6336 22.4457 58.9723 22.2025C59.3111 21.9593 59.3595 21.4243 59.5047 20.8406Z" fill="#1E2A4D"/>
<path d="M62.1665 23.7591V15.8311H63.7635V18.9439H66.8607V15.8311H68.4577V23.7591H66.8607V20.3058H63.7635V23.7591H62.1665Z" fill="#1E2A4D"/>
<path d="M69.8127 23.7591V15.8311H75.6684V17.1929H71.4097V18.9439H75.3781V20.2571H71.4097V22.3972H75.8136V23.7104H69.8127V23.7591Z" fill="#1E2A4D"/>
<path d="M76.8782 23.7591V15.8311H78.4268L81.6692 21.1326V15.8311H83.1694V23.7591H81.5724L78.3784 18.6034V23.7591H76.8782Z" fill="#1E2A4D"/>
<path d="M85.6859 23.7591L83.7986 15.8311H85.444L86.6538 21.2785L88.1056 15.8311H89.993L91.3964 21.3758L92.6063 15.8311H94.2033L92.2675 23.7591H90.5737L89.0251 17.8252L87.4765 23.7591H85.6859Z" fill="#1E2A4D"/>
<path d="M94.6389 23.7591V15.8311H100.495V17.1929H96.2359V18.9439H100.204V20.2571H96.2359V22.3972H100.64V23.7104H94.6389V23.7591Z" fill="#1E2A4D"/>
<path d="M101.753 23.759V15.9282H103.35V22.4457H107.318V23.759H101.753Z" fill="#1E2A4D"/>
<path d="M109.109 23.7591V17.1929H106.786V15.8311H113.028V17.1929H110.706V23.7591H109.109Z" fill="#1E2A4D"/>
<path d="M0.270508 8.87573L4.04524 10.8699V21.8135L0.270508 25.3154V8.87573Z" fill="#FBBB0E"/>
<path d="M0.270508 8.87588L4.04524 10.87L11.4979 5.51985V0.850586L0.270508 8.87588Z" fill="#E89B01"/>
<path d="M22.7255 8.87588L18.9507 10.87L11.498 5.51985V0.850586L22.7255 8.87588Z" fill="#F7A813"/>
<path d="M34.824 14.4692H34.3401V25.2669H34.824V14.4692Z" fill="#1E2A4D"/>
</g>
<defs>
<clipPath id="clip0">
<rect width="113" height="25" fill="white" transform="translate(0.173828 0.51001)"/>
</clipPath>
</defs>
</svg>
