<svg width="80" height="28" viewBox="0 0 80 28" fill="none" xmlns="http://www.w3.org/2000/svg">
<path d="M0.0134277 16.3518H6.19581C10.2742 16.3518 11.7127 18.9218 11.7127 21.5528C11.7127 24.7485 9.72717 26.7793 5.46237 26.7793H0.0134277V16.3518ZM3.78119 24.1066H5.25597C7.60003 24.1066 7.9449 22.4847 7.9449 21.5074C7.9449 20.8498 7.70533 19.0241 4.98271 19.0241H3.78119V24.1066Z" fill="#114677"/>
<path d="M13.3384 16.3518H22.7941V19.0241H17.1061V20.3232H21.9885V22.807H17.1061V26.7793H13.3384V16.3518Z" fill="#114677"/>
<path d="M24.229 16.3518H27.9963V19.9434H28.0331L31.3886 16.3518H36.032L31.5945 20.4255L36.7507 26.7786H32.0557L29.0398 22.7206L27.9958 23.6979V26.7786H24.2285V16.3518H24.229Z" fill="#114677"/>
<path d="M43.1699 16.3518H49.8693C53.09 16.3518 53.7756 17.9001 53.7756 18.9662C53.7756 20.0171 53.1759 20.5881 52.2666 21.0101C53.3638 21.3319 54.3895 22.0762 54.3895 23.6119C54.3895 25.6997 52.2666 26.7793 50.1089 26.7793H43.1699V16.3518ZM46.9408 20.413H48.9258C49.7161 20.413 50.21 20.2213 50.21 19.5507C50.21 19.0241 49.6972 18.8356 48.9258 18.8356H46.9408V20.413ZM46.9408 24.2983H49.1501C49.9367 24.2983 50.6223 24.1066 50.6223 23.3053C50.6223 22.6894 50.1947 22.3541 49.3039 22.3541H46.9408V24.2983Z" fill="#F15A24"/>
<path d="M59.251 16.3518H62.9356L67.3884 26.7793H63.4827L62.9688 25.2917H59.082L58.5318 26.7793H54.7456L59.251 16.3518ZM62.2169 23.0561L61.1196 19.8416H61.0859L59.9029 23.0561H62.2169Z" fill="#F15A24"/>
<path d="M79.3269 22.7499C79.3269 25.6395 77.4925 27.0279 73.759 27.0279C70.0254 27.0279 68.1758 25.6391 68.1758 22.7499V16.3518H71.943V22.0344C71.943 23.0978 71.943 24.4293 73.7742 24.4293C75.557 24.4293 75.557 23.0978 75.557 22.0344V16.3518H79.3274V22.7499H79.3269Z" fill="#F15A24"/>
<path d="M49.5125 13.517L31.6925 1.85181L13.7798 12.9654H18.8554L31.6661 5.11522L44.5263 13.5247H49.5046L49.5125 13.517Z" fill="#114677"/>
<path d="M53.9931 10.2543H58.9976L44.8453 0.992188L40.0261 4.07328L42.5355 5.71663L44.8159 4.25643L53.9931 10.2543Z" fill="#F15A24"/>
<path d="M79.3345 12.4026H44.5632V13.5245H79.3345V12.4026Z" fill="#114677"/>
<path d="M65.6329 8.01594C65.3359 8.3436 64.9463 8.46883 64.5751 8.46883C63.381 8.46883 62.677 7.70848 62.677 6.76005C62.677 5.78111 63.3815 5.02075 64.5751 5.02075C65.3628 5.02075 66.1083 5.43774 66.2005 6.18283H65.3901C65.2938 5.81971 64.9737 5.62939 64.5751 5.62939C63.8116 5.62939 63.5279 6.18283 63.5279 6.7605C63.5279 7.3072 63.8116 7.86064 64.5751 7.86064C65.1248 7.86064 65.4444 7.60703 65.4944 7.15055H64.6399V6.61238H66.2594V8.39073H65.7192L65.6329 8.01594Z" fill="#F15A24"/>
<path d="M67.1592 6.00746H67.8821V6.33112H67.8916C68.0932 6.08557 68.3854 5.94507 68.7472 5.94507C69.0957 5.94507 69.4111 6.05415 69.5617 6.33964C69.7265 6.13271 70.0145 5.94507 70.4041 5.94507C70.9991 5.94507 71.4282 6.17894 71.4282 6.79572V8.39108H70.6595V7.04126C70.6595 6.7221 70.6274 6.45995 70.1882 6.45995C69.7581 6.45995 69.6759 6.76474 69.6759 7.0646V8.39108H68.9077V7.05383C68.9077 6.78001 68.9299 6.4604 68.4449 6.4604C68.2938 6.4604 67.9237 6.54299 67.9237 7.01029V8.39153H67.1592V6.00746Z" fill="#F15A24"/>
<path d="M72.3018 5.10156H73.0699V6.29965H73.0794C73.2674 6.05366 73.6149 5.94458 73.9624 5.94458C74.5168 5.94458 75.116 6.32704 75.116 7.19654C75.116 8.07098 74.5163 8.45657 73.9624 8.45657C73.5507 8.45657 73.2084 8.34794 73.0431 8.08669H73.0299V8.39059H72.3023V5.10156H72.3018ZM73.6965 6.43612C73.2432 6.43612 73.0426 6.79972 73.0426 7.20103C73.0426 7.59829 73.2432 7.96145 73.6965 7.96145C74.1498 7.96145 74.351 7.59785 74.351 7.20103C74.3515 6.79972 74.1504 6.43612 73.6965 6.43612Z" fill="#F15A24"/>
<path d="M75.9521 5.10156H76.8019V6.36244H78.3631V5.10156H79.2134V8.38999H78.3631V6.97066H76.8019V8.38999H75.9521V5.10156Z" fill="#F15A24"/>
</svg>
