<svg xmlns="http://www.w3.org/2000/svg" xmlns:xlink="http://www.w3.org/1999/xlink" viewBox="0 0 23.06 27.52"><defs><style>.cls-1,.cls-3{fill:none;}.cls-2{clip-path:url(#clip-path);}.cls-3{stroke:#424d79;stroke-linecap:round;stroke-linejoin:round;stroke-width:1.5px;}</style><clipPath id="clip-path" transform="translate(0 0)"><rect class="cls-1" width="23.06" height="27.52"/></clipPath></defs><g id="Layer_2" data-name="Layer 2"><g id="Layer_1-2" data-name="Layer 1"><g class="cls-2"><path class="cls-3" d="M14.37,20.9l-.12.17a2.33,2.33,0,0,1-1.94,1h-.47a2.33,2.33,0,0,1-2.33-2.33V17.16a2.33,2.33,0,0,1,2.33-2.34h.47a2.35,2.35,0,0,1,1.94,1l.12.18M7.89,19.68h4.05m-4-2.43h4.05m5.67,1.22a6.08,6.08,0,1,1-6.08-6.08A6.08,6.08,0,0,1,17.61,18.47Zm-4-16.68s2-1.2,2.82,0S15.21,4.65,15,6.16M10,6.16S8.38,1.49,8.68,1s1.43.15,2.11,0,3-.68,2.86.83a27.31,27.31,0,0,1-1,4.37m-4.61,0S6.42,4.05,7.55,3.3l1.13-.75M15,6.16h-7A1.43,1.43,0,0,0,8.07,9h7a1.43,1.43,0,1,0,0-2.86Zm.54,20.61H7.5A6.75,6.75,0,0,1,2,16.17L7.63,9h7.81l5.67,7.15a6.75,6.75,0,0,1-5.54,10.6Z" transform="translate(0 0)"/></g></g></g></svg>
