<svg xmlns="http://www.w3.org/2000/svg" xmlns:xlink="http://www.w3.org/1999/xlink" viewBox="0 0 51.7 57.97"><defs><style>.cls-1,.cls-3{fill:none;}.cls-2{clip-path:url(#clip-path);}.cls-3{stroke:#424d79;stroke-linecap:round;stroke-linejoin:round;stroke-width:2px;}</style><clipPath id="clip-path" transform="translate(0)"><rect class="cls-1" width="51.7" height="57.97"/></clipPath></defs><g id="Layer_2" data-name="Layer 2"><g id="Layer_1-2" data-name="Layer 1"><g class="cls-2"><path class="cls-3" d="M29.93,25.53a4.32,4.32,0,0,0,2.49-1.13,4.76,4.76,0,0,0,1.61-2M28.1,29.08A4.38,4.38,0,0,1,25.6,28,4.93,4.93,0,0,1,24,26M32.45,14.2l-.18.27a3.62,3.62,0,0,1-3,1.61h-.72a3.62,3.62,0,0,1-3.62-3.62V8.39a3.62,3.62,0,0,1,3.62-3.62h.72a3.63,3.63,0,0,1,3,1.62l.18.27M22.39,12.31h6.29M22.39,8.54h6.29m8.8,1.89A9.43,9.43,0,1,1,28.05,1,9.42,9.42,0,0,1,37.48,10.43Zm-9.43,9.42s1.14,1.78,1.14,6a16.29,16.29,0,0,1-1.14,6m14.26,6.5a45.16,45.16,0,0,0-10.07-5.76,9.28,9.28,0,0,0-8.08.36,81.39,81.39,0,0,0-8,4.93M5.4,45V40H1V57H5.4v-5M33.68,45l12.59-5.77a3.13,3.13,0,0,1,2.91,5.53L34.81,53.45A19.14,19.14,0,0,1,20,55.54,49.38,49.38,0,0,0,7.05,53.83H5.4m0-10.68L10.88,41a7.3,7.3,0,0,1,5.36,0,20.15,20.15,0,0,0,7.51,1.45h7.42a2.51,2.51,0,0,1,0,5H19.27" transform="translate(0)"/></g></g></g></svg>
