<svg width="105" height="25" viewBox="0 0 105 25" fill="none" xmlns="http://www.w3.org/2000/svg">
<path d="M22.1362 2.81391C21.5023 2.23068 20.1006 1.10947 18.5434 0.956998C16.5927 0.765689 14.5541 1.39707 14.5541 1.39707L11.0986 4.82554L0.556641 15.2846L8.17413 22.763C8.808 23.3462 10.2101 24.4677 11.7673 24.6202C13.718 24.8115 15.7565 24.1801 15.7565 24.1801L19.2124 20.7513L29.7537 10.2923L22.1362 2.81391Z" fill="white"/>
<path d="M22.4949 3.16511C22.4949 3.16511 22.3635 3.02324 22.1355 2.81299L29.753 10.2917L29.7536 10.2914L22.4949 3.16511Z" fill="#1E3E7F"/>
<path d="M3.88502 11.9807L5.16577 13.1802H6.60393C6.60393 13.1802 7.33374 13.1802 7.68141 13.1802C8.02713 13.1802 8.35528 13.4559 8.35528 13.4559L14.504 19.5528C14.504 19.5528 12.8239 19.8356 12.1868 19.4122C11.6261 19.0145 8.75336 16.0688 8.70458 16.0485C8.65547 16.0283 8.43529 16.1346 8.48765 16.1891C9.08379 16.8244 12.0515 19.8738 12.4681 19.8754C13.4845 20.0108 15.8391 19.8937 15.8391 19.8937C15.8391 19.8937 17.0772 20.362 16.9247 21.0842C14.3687 21.3452 12.1123 21.947 10.7047 20.4474C10.6081 20.4021 10.5015 20.4974 10.5067 20.638C12.1126 22.2378 13.6962 21.6732 16.3201 21.4254C16.5861 21.5438 16.6997 22.0606 16.3133 22.2613C14.2725 22.5341 11.8434 23.0756 10.3847 21.7865C10.2575 21.7515 10.1762 21.8417 10.1967 21.982C11.5484 23.3561 14.1908 22.945 15.8576 22.5938C16.1201 22.5755 16.2134 22.9097 15.9676 23.1372C12.6307 23.8476 11.147 23.707 10.1681 22.9097C10.0442 22.8596 9.93751 22.9097 9.96483 23.0836C11.6521 24.4578 14.3788 23.7471 15.6697 23.4813C15.7562 23.5314 15.8189 23.7189 15.6697 23.9195C10.7707 25.1463 9.55114 23.4512 8.41285 22.4179L0.883819 14.9581L0.555664 15.2839L8.17315 22.7623C8.80702 23.3456 10.2091 24.4671 11.7663 24.6196C13.717 24.8109 15.7555 24.1795 15.7555 24.1795L19.2114 20.7507L26.45 13.5686L25.1614 12.3617H23.7233C23.7233 12.3617 22.9935 12.3617 22.6458 12.3617C22.3001 12.3617 21.9719 12.0859 21.9719 12.0859L15.8232 5.98879C15.8232 5.98879 17.5033 5.706 18.1404 6.12938C18.7014 6.52708 21.5738 9.47279 21.623 9.49301C21.6721 9.51323 21.8919 9.40698 21.8399 9.35242C21.2434 8.71718 18.2757 5.6678 17.8591 5.66619C16.8428 5.53074 14.4884 5.6479 14.4884 5.6479C14.4884 5.6479 13.25 5.17958 13.4025 4.45735C15.9585 4.19639 18.2149 3.59454 19.6225 5.09419C19.7191 5.13945 19.8257 5.04412 19.8205 4.90353C18.2146 3.30372 16.631 3.86834 14.0071 4.11614C13.7414 3.9977 13.6279 3.48091 14.0139 3.28029C16.0547 3.00745 18.4839 2.46595 19.9425 3.75503C20.0697 3.79002 20.151 3.69982 20.1305 3.55955C18.7788 2.1854 16.1364 2.59659 14.4696 2.94775C14.2071 2.96605 14.1138 2.6319 14.3596 2.40432C17.6965 1.69397 19.1802 1.83424 20.1594 2.63158C20.283 2.68165 20.3897 2.63158 20.3627 2.4576C18.6754 1.08345 15.9484 1.79412 14.6575 2.0599C14.571 2.00982 14.5086 1.82237 14.6575 1.62175C19.5561 0.394935 20.7757 2.09007 21.914 3.12333L29.4505 10.5914L29.7527 10.2916L22.1352 2.81293C21.5013 2.2297 20.0996 1.10849 18.5424 0.956021C16.5917 0.764712 14.5532 1.3961 14.5532 1.3961L11.0976 4.82489L3.88502 11.9807ZM18.5151 16.297H11.7803V11.1875L15.1477 8.7939L18.5151 11.1875V16.297ZM15.1408 7.42713L20.2056 11.028L19.697 11.6112L19.6833 11.6212L15.1408 8.39266L10.5984 11.6212L10.5779 11.6064L10.0741 11.0286L15.1408 7.42713Z" fill="#1B355B"/>
<path d="M32.0842 17.3443V8.14282H33.9413L36.148 14.6579C36.3512 15.2646 36.4998 15.7188 36.5932 16.0199C36.6992 15.6854 36.8644 15.1936 37.0892 14.5449L39.3212 8.14282H40.9812V17.3443H39.7918V9.64312L37.0827 17.3446H35.9697L33.2736 9.51119V17.3443H32.0842Z" fill="#1B355B"/>
<path d="M43.1814 17.3443V8.14282H44.415V17.3443H43.1814Z" fill="#1B355B"/>
<path d="M45.5662 17.3443L49.1466 8.14282H50.4758L54.2914 17.3443H52.8857L51.7982 14.5574H47.9L46.8762 17.3443H45.5662ZM48.2561 13.5659H51.417L50.4439 11.0176C50.147 10.2434 49.9268 9.60749 49.7827 9.10964C49.664 9.69961 49.4965 10.2857 49.2803 10.867L48.2561 13.5659Z" fill="#1B355B"/>
<path d="M59.6398 13.7354V12.6559L63.5891 12.6495V16.0641C62.9829 16.5411 62.3574 16.9 61.7128 17.1404C61.0686 17.3812 60.407 17.5015 59.7286 17.5015C58.8128 17.5015 57.9805 17.308 57.2325 16.9209C56.4842 16.5337 55.9192 15.9743 55.5377 15.2418C55.1562 14.5096 54.9653 13.6914 54.9653 12.7875C54.9653 11.8919 55.1549 11.0561 55.5345 10.2799C55.914 9.50379 56.4598 8.9273 57.172 8.55078C57.8843 8.17426 58.7045 7.98584 59.633 7.98584C60.3072 7.98584 60.9167 8.09337 61.4614 8.30907C62.0062 8.52478 62.4332 8.8249 62.7428 9.20977C63.0521 9.59463 63.2876 10.097 63.4486 10.7162L62.3357 11.0172C62.1958 10.5486 62.0218 10.1804 61.8143 9.91273C61.6062 9.64503 61.3096 9.43061 60.9238 9.26947C60.5378 9.10865 60.1101 9.02777 59.6392 9.02777C59.0752 9.02777 58.5877 9.11251 58.1766 9.28199C57.7652 9.45147 57.4335 9.67424 57.1811 9.95061C56.9287 10.227 56.7329 10.5303 56.5928 10.8606C56.3554 11.4297 56.2366 12.047 56.2366 12.7124C56.2366 13.5325 56.3798 14.2188 56.666 14.7712C56.9522 15.3236 57.3688 15.7338 57.9158 16.0015C58.4628 16.2692 59.0434 16.4031 59.658 16.4031C60.1924 16.4031 60.7141 16.3017 61.2224 16.0988C61.7311 15.8959 62.1171 15.6793 62.3802 15.4491V13.7354H59.6398Z" fill="#1B355B"/>
<path d="M73.3891 13.7354V12.6559L77.3384 12.6495V16.0641C76.7321 16.5411 76.1067 16.9 75.4621 17.1404C74.8178 17.3812 74.1563 17.5015 73.4779 17.5015C72.5624 17.5015 71.7301 17.308 70.9818 16.9209C70.2334 16.5337 69.6685 15.9743 69.287 15.2418C68.9052 14.5096 68.7146 13.6914 68.7146 12.7875C68.7146 11.8919 68.9042 11.0561 69.2837 10.2799C69.663 9.50379 70.209 8.9273 70.9213 8.55078C71.6332 8.17426 72.4538 7.98584 73.3823 7.98584C74.0562 7.98584 74.6656 8.09337 75.2104 8.30907C75.7552 8.52478 76.1822 8.8249 76.4918 9.20977C76.8011 9.59463 77.0366 10.097 77.1975 10.7162L76.0846 11.0172C75.9448 10.5486 75.7708 10.1804 75.5633 9.91273C75.3551 9.64503 75.0585 9.43061 74.6728 9.26947C74.2867 9.10865 73.8587 9.02777 73.3885 9.02777C72.8245 9.02777 72.337 9.11251 71.9256 9.28199C71.5142 9.45147 71.1828 9.67424 70.9304 9.95061C70.678 10.2267 70.4819 10.5303 70.3417 10.8606C70.1046 11.4297 69.9856 12.047 69.9856 12.7124C69.9856 13.5325 70.1287 14.2188 70.4149 14.7712C70.7011 15.3236 71.1174 15.7338 71.6644 16.0015C72.2115 16.2692 72.7923 16.4031 73.407 16.4031C73.9414 16.4031 74.4627 16.3017 74.9713 16.0988C75.48 15.8959 75.8661 15.6793 76.1292 15.4491V13.7354H73.3891Z" fill="#1B355B"/>
<path d="M79.0107 17.3443V10.6786H80.0346V11.614C80.2463 11.2875 80.5286 11.025 80.8805 10.8263C81.2324 10.6276 81.6327 10.5281 82.0822 10.5281C82.5824 10.5281 82.9928 10.6305 83.3129 10.8356C83.6329 11.0407 83.8586 11.3273 83.99 11.6955C84.5243 10.9171 85.2193 10.5281 86.076 10.5281C86.746 10.5281 87.2611 10.711 87.6215 11.0773C87.9815 11.4435 88.162 12.0072 88.162 12.7689V17.3446H87.0234V13.1454C87.0234 12.6935 86.9863 12.3683 86.9121 12.1693C86.8377 11.9706 86.703 11.8104 86.5082 11.6891C86.3131 11.5678 86.0844 11.5071 85.8217 11.5071C85.3468 11.5071 84.9523 11.6631 84.6388 11.9748C84.325 12.2864 84.1682 12.7856 84.1682 13.4719V17.3446H83.0234V13.0135C83.0234 12.5115 82.9301 12.1346 82.7437 11.8836C82.557 11.6326 82.2516 11.5071 81.8279 11.5071C81.5059 11.5071 81.208 11.5909 80.9345 11.7581C80.6609 11.9253 80.4629 12.1702 80.3399 12.4925C80.217 12.8148 80.1555 13.2793 80.1555 13.8859V17.3443H79.0107Z" fill="#1B355B"/>
<path d="M90.9157 17.3443H89.8535V8.14282H90.9983V11.4256C91.4816 10.8272 92.0986 10.5281 92.8489 10.5281C93.2642 10.5281 93.6574 10.6106 94.0285 10.7759C94.3995 10.9412 94.7046 11.1736 94.9443 11.4727C95.1837 11.7719 95.3713 12.1327 95.5069 12.5554C95.6426 12.9779 95.7102 13.4301 95.7102 13.9113C95.7102 15.0537 95.424 15.9364 94.8516 16.5598C94.2792 17.1834 93.5927 17.4951 92.7913 17.4951C91.9942 17.4951 91.3688 17.1667 90.9151 16.5097V17.3443H90.9157ZM90.903 13.9614C90.903 14.7606 91.0133 15.3381 91.2338 15.6937C91.5941 16.2754 92.0816 16.5662 92.6963 16.5662C93.1965 16.5662 93.6291 16.3518 93.9937 15.9229C94.3582 15.4941 94.5407 14.855 94.5407 14.0053C94.5407 13.1351 94.3661 12.4928 94.0161 12.0785C93.6665 11.6641 93.2434 11.457 92.7477 11.457C92.2472 11.457 91.815 11.6714 91.4504 12.1003C91.0855 12.5291 90.903 13.1496 90.903 13.9614Z" fill="#1B355B"/>
<path d="M97.2883 17.3443V8.14282H98.5219V11.9212H103.368V8.14282H104.601V17.3443H103.368V13.0074H98.5219V17.3446H97.2883V17.3443Z" fill="#1B355B"/>
<path d="M32.3025 23.7961V20.4646H34.7433V20.8578H32.7494V21.8782H34.6168V22.2692H32.7494V23.4032H34.8217V23.7965H32.3025V23.7961Z" fill="#464748"/>
<path d="M35.3882 20.9348V20.4646H35.8025V20.9348H35.3882ZM35.3882 23.7961V21.3826H35.8025V23.7961H35.3882Z" fill="#464748"/>
<path d="M36.4336 23.7962V21.3827H36.8063V21.7258C36.9862 21.4607 37.2454 21.3281 37.5849 21.3281C37.7322 21.3281 37.8675 21.3544 37.9911 21.4064C38.1147 21.4588 38.2071 21.5271 38.2689 21.6122C38.33 21.6969 38.3729 21.7977 38.3976 21.9142C38.4129 21.99 38.4204 22.1226 38.4204 22.312V23.7959H38.0061V22.3277C38.0061 22.1611 37.9901 22.0365 37.9579 21.9537C37.9257 21.8712 37.8685 21.8051 37.7865 21.756C37.7043 21.7069 37.608 21.6822 37.4974 21.6822C37.3208 21.6822 37.1683 21.7374 37.0405 21.8481C36.912 21.9585 36.8483 22.1685 36.8483 22.4776V23.7956H36.4336V23.7962Z" fill="#464748"/>
<path d="M42.6346 20.4646H43.0811V22.3896C43.0811 22.7244 43.0427 22.9905 42.966 23.1872C42.8892 23.3843 42.7507 23.5445 42.5503 23.6681C42.35 23.7916 42.0872 23.8533 41.7617 23.8533C41.4452 23.8533 41.1867 23.7997 40.9857 23.6921C40.7847 23.5846 40.6409 23.4289 40.5551 23.2251C40.4692 23.0213 40.4263 22.743 40.4263 22.3899V20.4649H40.8731V22.3876C40.8731 22.6768 40.9001 22.8903 40.9548 23.0274C41.0091 23.1644 41.1027 23.27 41.2354 23.3442C41.3681 23.4183 41.5307 23.4556 41.7226 23.4556C42.0511 23.4556 42.2849 23.3821 42.4248 23.235C42.5646 23.088 42.6346 22.8056 42.6346 22.3873V20.4646Z" fill="#464748"/>
<path d="M43.7722 23.7962V21.3827H44.1449V21.7258C44.3248 21.4607 44.584 21.3281 44.9235 21.3281C45.0709 21.3281 45.2061 21.3544 45.3297 21.4064C45.4533 21.4588 45.5457 21.5271 45.6075 21.6122C45.6686 21.6969 45.7115 21.7977 45.7363 21.9142C45.7516 21.99 45.759 22.1226 45.759 22.312V23.7959H45.3447V22.3277C45.3447 22.1611 45.3288 22.0365 45.2966 21.9537C45.2644 21.8712 45.2071 21.8051 45.1252 21.756C45.0429 21.7069 44.9466 21.6822 44.836 21.6822C44.6594 21.6822 44.5069 21.7374 44.3791 21.8481C44.2506 21.9585 44.1869 22.1685 44.1869 22.4776V23.7956H43.7722V23.7962Z" fill="#464748"/>
<path d="M47.3 23.4302L47.3599 23.7913C47.2434 23.8157 47.1387 23.8276 47.0467 23.8276C46.8964 23.8276 46.7796 23.8041 46.6967 23.7573C46.6138 23.7104 46.5556 23.6485 46.5217 23.5721C46.4879 23.4957 46.4713 23.3345 46.4713 23.089V21.7004H46.1672V21.3823H46.4713V20.7846L46.8837 20.5391V21.382H47.3003V21.7001H46.8837V23.1115C46.8837 23.228 46.8905 23.3031 46.9052 23.3365C46.9198 23.3699 46.9436 23.3965 46.9767 23.4161C47.0099 23.436 47.0571 23.4456 47.1185 23.4456C47.1641 23.4462 47.2246 23.4408 47.3 23.4302Z" fill="#464748"/>
<path d="M49.379 23.019L49.8073 23.0713C49.7397 23.3185 49.6144 23.5101 49.432 23.6465C49.2495 23.783 49.016 23.851 48.7321 23.851C48.3744 23.851 48.0908 23.7422 47.8813 23.5249C47.6719 23.3076 47.5671 23.0026 47.5671 22.6101C47.5671 22.204 47.6728 21.8888 47.8849 21.6648C48.0969 21.4407 48.3714 21.3284 48.7093 21.3284C49.0362 21.3284 49.3032 21.4381 49.5107 21.658C49.7179 21.8776 49.8213 22.1867 49.8213 22.5854C49.8213 22.6094 49.8206 22.6457 49.819 22.6945H47.9955C48.0107 22.9596 48.0869 23.1625 48.2234 23.3034C48.36 23.444 48.5301 23.5146 48.7344 23.5146C48.8866 23.5146 49.016 23.4751 49.1237 23.3965C49.231 23.3172 49.3162 23.1917 49.379 23.019ZM48.0186 22.3578H49.3839C49.3653 22.1546 49.313 22.0024 49.2274 21.901C49.0954 21.7434 48.924 21.6648 48.7139 21.6648C48.5236 21.6648 48.3636 21.7277 48.2335 21.8532C48.1038 21.9787 48.0322 22.1469 48.0186 22.3578Z" fill="#464748"/>
<path d="M50.323 23.7962V21.3827H50.696V21.7486C50.791 21.5772 50.8791 21.4645 50.9598 21.41C51.0401 21.3554 51.1292 21.3281 51.2255 21.3281C51.3654 21.3281 51.5071 21.3721 51.6519 21.46L51.5091 21.8398C51.4076 21.7804 51.3065 21.7512 51.205 21.7512C51.1146 21.7512 51.033 21.7781 50.9608 21.8318C50.8886 21.8854 50.8372 21.9601 50.8066 22.0555C50.7604 22.2009 50.7373 22.3601 50.7373 22.5328V23.7965H50.323V23.7962Z" fill="#464748"/>
<path d="M51.8982 23.7962V21.3827H52.2709V21.7258C52.4508 21.4607 52.7103 21.3281 53.0495 21.3281C53.1968 21.3281 53.3321 21.3544 53.4557 21.4064C53.5793 21.4588 53.672 21.5271 53.7335 21.6122C53.7946 21.6969 53.8379 21.7977 53.8622 21.9142C53.8775 21.99 53.8853 22.1226 53.8853 22.312V23.7959H53.4707V22.3277C53.4707 22.1611 53.4547 22.0365 53.4225 21.9537C53.3903 21.8712 53.3334 21.8051 53.2511 21.756C53.1692 21.7069 53.0726 21.6822 52.962 21.6822C52.7854 21.6822 52.6332 21.7374 52.5051 21.8481C52.3769 21.9585 52.3129 22.1685 52.3129 22.4776V23.7956H51.8982V23.7962Z" fill="#464748"/>
<path d="M56.195 23.019L56.623 23.0713C56.5553 23.3185 56.4301 23.5101 56.2477 23.6465C56.0652 23.783 55.8317 23.851 55.5478 23.851C55.19 23.851 54.9064 23.7422 54.697 23.5249C54.4875 23.3076 54.3828 23.0026 54.3828 22.6101C54.3828 22.204 54.4885 21.8888 54.7006 21.6648C54.9126 21.4407 55.1871 21.3284 55.525 21.3284C55.8519 21.3284 56.1189 21.4381 56.3264 21.658C56.5335 21.8776 56.6373 22.1867 56.6373 22.5854C56.6373 22.6094 56.6363 22.6457 56.6347 22.6945H54.8111C54.8267 22.9596 54.9025 23.1625 55.0391 23.3034C55.1757 23.444 55.3461 23.5146 55.5504 23.5146C55.7023 23.5146 55.8317 23.4751 55.9394 23.3965C56.0467 23.3172 56.1319 23.1917 56.195 23.019ZM54.8342 22.3578H56.1995C56.181 22.1546 56.129 22.0024 56.0431 21.901C55.9111 21.7434 55.7397 21.6648 55.5296 21.6648C55.3393 21.6648 55.1793 21.7277 55.0495 21.8532C54.9194 21.9787 54.8479 22.1469 54.8342 22.3578Z" fill="#464748"/>
<path d="M57.1438 23.7961V20.4646H57.5581V21.66C57.7517 21.4388 57.9956 21.3281 58.2902 21.3281C58.4717 21.3281 58.6288 21.3634 58.7625 21.4337C58.8958 21.5043 58.9914 21.6015 59.049 21.7258C59.1066 21.85 59.1355 22.0304 59.1355 22.2669V23.7965H58.7212V22.2669C58.7212 22.0622 58.6763 21.9135 58.5865 21.8201C58.4968 21.727 58.3696 21.6802 58.2053 21.6802C58.0824 21.6802 57.9673 21.7116 57.859 21.7746C57.7507 21.8375 57.6736 21.9225 57.6274 22.0304C57.5812 22.1379 57.5585 22.2862 57.5585 22.4759V23.7961H57.1438Z" fill="#464748"/>
<path d="M59.7664 23.7962V21.3827H60.1371V21.7213C60.2139 21.6032 60.316 21.5079 60.4432 21.436C60.5703 21.3641 60.7157 21.3281 60.8783 21.3281C61.0598 21.3281 61.2081 21.3654 61.3239 21.4395C61.4397 21.5137 61.5216 21.6173 61.5694 21.7509C61.7626 21.469 62.0143 21.3281 62.3246 21.3281C62.5669 21.3281 62.7532 21.3946 62.884 21.5271C63.0147 21.6597 63.0801 21.8639 63.0801 22.1396V23.7962H62.6677V22.276C62.6677 22.1123 62.6541 21.9945 62.6274 21.9226C62.6004 21.8507 62.5519 21.7926 62.481 21.7486C62.4105 21.7046 62.3275 21.6825 62.2326 21.6825C62.0605 21.6825 61.9177 21.739 61.8042 21.8517C61.6907 21.9643 61.6338 22.1454 61.6338 22.3938V23.7959H61.2198V22.2279C61.2198 22.0462 61.186 21.9098 61.118 21.8189C61.0507 21.7281 60.9401 21.6825 60.7863 21.6825C60.6698 21.6825 60.5622 21.7127 60.463 21.7733C60.3638 21.834 60.2922 21.9226 60.2477 22.0394C60.2031 22.156 60.181 22.3241 60.181 22.5437V23.7959H59.7664V23.7962Z" fill="#464748"/>
<path d="M65.3688 23.019L65.7968 23.0713C65.7292 23.3185 65.604 23.5101 65.4215 23.6465C65.239 23.783 65.0055 23.851 64.7216 23.851C64.3639 23.851 64.0803 23.7422 63.8708 23.5249C63.6614 23.3076 63.5566 23.0026 63.5566 22.6101C63.5566 22.204 63.6623 21.8888 63.8744 21.6648C64.0864 21.4407 64.3609 21.3284 64.6988 21.3284C65.0257 21.3284 65.2927 21.4381 65.5002 21.658C65.7074 21.8776 65.8111 22.1867 65.8111 22.5854C65.8111 22.6094 65.8101 22.6457 65.8085 22.6945H63.985C64.0006 22.9596 64.0764 23.1625 64.213 23.3034C64.3495 23.444 64.52 23.5146 64.7242 23.5146C64.8761 23.5146 65.0055 23.4751 65.1132 23.3965C65.2205 23.3172 65.3057 23.1917 65.3688 23.019ZM64.0081 22.3578H65.3734C65.3548 22.1546 65.3028 22.0024 65.2169 21.901C65.0849 21.7434 64.9135 21.6648 64.7034 21.6648C64.5131 21.6648 64.3531 21.7277 64.2234 21.8532C64.0933 21.9787 64.0217 22.1469 64.0081 22.3578Z" fill="#464748"/>
<path d="M66.3174 23.7962V21.3827H66.6901V21.7258C66.8699 21.4607 67.1295 21.3281 67.4687 21.3281C67.616 21.3281 67.7513 21.3544 67.8749 21.4064C67.9985 21.4588 68.0912 21.5271 68.1526 21.6122C68.2138 21.6969 68.257 21.7977 68.2814 21.9142C68.2967 21.99 68.3045 22.1226 68.3045 22.312V23.7959H67.8899V22.3277C67.8899 22.1611 67.8739 22.0365 67.8417 21.9537C67.8095 21.8712 67.7526 21.8051 67.6703 21.756C67.5884 21.7069 67.4918 21.6822 67.3812 21.6822C67.2046 21.6822 67.0524 21.7374 66.9243 21.8481C66.7961 21.9585 66.7321 22.1685 66.7321 22.4776V23.7956H66.3174V23.7962Z" fill="#464748"/>
<path d="M71.8369 23.7961V23.4914C71.6818 23.7309 71.4538 23.8506 71.1529 23.8506C70.9578 23.8506 70.7789 23.7977 70.6153 23.6914C70.4518 23.5852 70.3249 23.4372 70.2355 23.2472C70.1457 23.0571 70.1008 22.8385 70.1008 22.5917C70.1008 22.351 70.1415 22.1324 70.2228 21.9362C70.3041 21.7401 70.4261 21.5896 70.5887 21.4853C70.7516 21.3806 70.9337 21.3283 71.1347 21.3283C71.2821 21.3283 71.4131 21.3591 71.5282 21.4204C71.6434 21.4817 71.7374 21.5617 71.8092 21.6602V20.4648H72.2216V23.7964H71.8369V23.7961ZM70.5269 22.5917C70.5269 22.9008 70.5929 23.1319 70.7246 23.285C70.8567 23.4382 71.0124 23.5145 71.1923 23.5145C71.3734 23.5145 71.5273 23.4414 71.6541 23.2953C71.7806 23.1489 71.844 22.9259 71.844 22.6261C71.844 22.2958 71.7797 22.0534 71.6505 21.8987C71.5214 21.744 71.3624 21.6669 71.1738 21.6669C70.9897 21.6669 70.8355 21.7411 70.7119 21.8894C70.5883 22.0377 70.5269 22.2717 70.5269 22.5917Z" fill="#464748"/>
<path d="M74.5473 23.019L74.9753 23.0713C74.9076 23.3185 74.7824 23.5101 74.6 23.6465C74.4175 23.783 74.184 23.851 73.9001 23.851C73.5423 23.851 73.2587 23.7422 73.0493 23.5249C72.8398 23.3076 72.7351 23.0026 72.7351 22.6101C72.7351 22.204 72.8408 21.8888 73.0529 21.6648C73.2649 21.4407 73.5394 21.3284 73.8773 21.3284C74.2042 21.3284 74.4712 21.4381 74.6787 21.658C74.8858 21.8776 74.9896 22.1867 74.9896 22.5854C74.9896 22.6094 74.9886 22.6457 74.987 22.6945H73.1634C73.179 22.9596 73.2548 23.1625 73.3914 23.3034C73.528 23.444 73.6984 23.5146 73.9027 23.5146C74.0546 23.5146 74.184 23.4751 74.2916 23.3965C74.399 23.3172 74.4839 23.1917 74.5473 23.019ZM73.1862 22.3578H74.5515C74.533 22.1546 74.4809 22.0024 74.3951 21.901C74.263 21.7434 74.0916 21.6648 73.8815 21.6648C73.6913 21.6648 73.5313 21.7277 73.4015 21.8532C73.2717 21.9787 73.1999 22.1469 73.1862 22.3578Z" fill="#464748"/>
<path d="M75.491 23.7962V21.3827H75.864V21.7486C75.959 21.5772 76.0471 21.4645 76.1278 21.41C76.2084 21.3554 76.2972 21.3281 76.3935 21.3281C76.5333 21.3281 76.6751 21.3721 76.8198 21.46L76.6771 21.8398C76.5756 21.7804 76.4745 21.7512 76.373 21.7512C76.2826 21.7512 76.2013 21.7781 76.1287 21.8318C76.0565 21.8854 76.0052 21.9601 75.9746 22.0555C75.9284 22.2009 75.9053 22.3601 75.9053 22.5328V23.7965H75.491V23.7962Z" fill="#464748"/>
<path d="M78.4292 23.7961V20.4646H79.5919C79.8544 20.4646 80.0547 20.4803 80.1929 20.5124C80.3864 20.5564 80.5516 20.6357 80.6879 20.7509C80.8658 20.8992 80.9992 21.0892 81.0876 21.32C81.1761 21.5508 81.2197 21.815 81.2197 22.1122C81.2197 22.3652 81.1897 22.5892 81.1302 22.785C81.0701 22.9802 80.9936 23.142 80.9 23.27C80.8063 23.3981 80.7035 23.4989 80.5926 23.5724C80.4811 23.6459 80.3471 23.7014 80.1897 23.7396C80.0326 23.7775 79.8518 23.7965 79.6475 23.7965H78.4292V23.7961ZM78.8757 23.4029H79.5964C79.8192 23.4029 79.9939 23.3824 80.1204 23.3416C80.2469 23.3009 80.3477 23.2431 80.4232 23.1689C80.5292 23.0643 80.6115 22.9237 80.6707 22.7475C80.7299 22.5712 80.7591 22.3571 80.7591 22.1055C80.7591 21.7572 80.7013 21.4892 80.5855 21.3021C80.4697 21.1149 80.3289 20.9894 80.163 20.9259C80.0433 20.8803 79.8505 20.8578 79.5851 20.8578H78.8757V23.4029Z" fill="#464748"/>
<path d="M81.8579 23.7961V20.4646H84.1351V20.8578H82.3044V21.8895H83.8886V22.2827H82.3044V23.7961H81.8579Z" fill="#464748"/>
<path d="M84.6973 23.7961V20.4646H85.1438V22.1167L86.82 20.4646H87.4256L86.0096 21.8147L87.4877 23.7965H86.8981L85.6964 22.1103L85.1438 22.6422V23.7968H84.6973V23.7961Z" fill="#464748"/>
<path d="M90.7504 22.4894V22.0984L92.1801 22.0962V23.3326C91.9606 23.5053 91.7342 23.6353 91.5007 23.7223C91.2675 23.8093 91.0282 23.853 90.7823 23.853C90.4506 23.853 90.1497 23.783 89.8788 23.6427C89.6079 23.5024 89.4033 23.2999 89.2651 23.0348C89.1269 22.7696 89.0576 22.4733 89.0576 22.1463C89.0576 21.8221 89.1266 21.5194 89.2638 21.2382C89.4014 20.9573 89.5988 20.7487 89.8567 20.6123C90.1146 20.4758 90.4115 20.4075 90.7478 20.4075C90.9917 20.4075 91.2126 20.4466 91.4097 20.5246C91.6067 20.6026 91.7616 20.7114 91.8738 20.8508C91.986 20.9901 92.0708 21.1717 92.1294 21.3961L91.7264 21.5052C91.676 21.3354 91.6126 21.2022 91.5375 21.1053C91.4627 21.0084 91.3547 20.9307 91.2155 20.8723C91.0757 20.8138 90.9208 20.785 90.7501 20.785C90.5459 20.785 90.3693 20.8154 90.2206 20.8771C90.0717 20.9384 89.9513 21.019 89.8603 21.1191C89.7689 21.2192 89.698 21.329 89.6472 21.4488C89.5614 21.6548 89.5185 21.8782 89.5185 22.119C89.5185 22.4159 89.5702 22.6643 89.6742 22.8643C89.7777 23.0643 89.9286 23.2126 90.1266 23.3098C90.3247 23.4068 90.5351 23.4552 90.7576 23.4552C90.9511 23.4552 91.1397 23.4187 91.3238 23.3451C91.5079 23.2716 91.6477 23.1933 91.743 23.1099V22.4894H90.7504Z" fill="#464748"/>
<path d="M92.7815 23.7962V21.3827H93.1545V21.7486C93.2495 21.5772 93.3376 21.4645 93.4183 21.41C93.4989 21.3554 93.5877 21.3281 93.684 21.3281C93.8238 21.3281 93.9656 21.3721 94.1104 21.46L93.9676 21.8398C93.8661 21.7804 93.765 21.7512 93.6635 21.7512C93.5731 21.7512 93.4918 21.7781 93.4193 21.8318C93.3471 21.8854 93.2957 21.9601 93.2651 22.0555C93.2189 22.2009 93.1958 22.3601 93.1958 22.5328V23.7965H92.7815V23.7962Z" fill="#464748"/>
<path d="M95.9595 23.7961V23.4417C95.7689 23.7145 95.5103 23.8506 95.1835 23.8506C95.0391 23.8506 94.9045 23.8234 94.7792 23.7688C94.654 23.7142 94.5613 23.6459 94.5008 23.563C94.4403 23.4802 94.3977 23.3794 94.373 23.2597C94.3558 23.1795 94.3477 23.0523 94.3477 22.878V21.3826H94.762V22.7211C94.762 22.9345 94.7701 23.0787 94.787 23.1528C94.8134 23.2603 94.8687 23.3451 94.9529 23.4064C95.0375 23.4677 95.1419 23.4985 95.2661 23.4985C95.3907 23.4985 95.5071 23.4671 95.6161 23.4045C95.7253 23.3416 95.8024 23.2559 95.8476 23.1477C95.8931 23.0395 95.9156 22.8822 95.9156 22.6761V21.3829H96.3299V23.7964H95.9595V23.7961Z" fill="#464748"/>
<path d="M96.9792 24.7213V21.3827H97.3568V21.6963C97.4456 21.5737 97.5464 21.4816 97.6587 21.4202C97.7705 21.3589 97.9065 21.3281 98.0662 21.3281C98.2749 21.3281 98.459 21.3811 98.6187 21.4873C98.7781 21.5936 98.8987 21.7428 98.98 21.9361C99.0613 22.1293 99.102 22.3408 99.102 22.5713C99.102 22.8185 99.0571 23.0406 98.9674 23.2383C98.8776 23.4361 98.7472 23.5876 98.5761 23.6928C98.405 23.7981 98.2249 23.8508 98.0359 23.8508C97.898 23.8508 97.7738 23.8219 97.6642 23.7644C97.5543 23.707 97.4642 23.6341 97.3936 23.5461V24.7213H96.9792ZM97.3546 22.6031C97.3546 22.9135 97.4183 23.1433 97.5458 23.2916C97.6733 23.4399 97.8274 23.5144 98.0089 23.5144C98.193 23.5144 98.3507 23.4373 98.4818 23.2836C98.6132 23.1298 98.6786 22.8917 98.6786 22.5687C98.6786 22.2612 98.6145 22.0308 98.4863 21.878C98.3579 21.7249 98.205 21.6485 98.0271 21.6485C97.8505 21.6485 97.6944 21.7297 97.5585 21.8927C97.4225 22.0558 97.3546 22.2924 97.3546 22.6031Z" fill="#464748"/>
<path d="M99.6023 24.7213V21.3827H99.9799V21.6963C100.069 21.5737 100.169 21.4816 100.282 21.4202C100.394 21.3589 100.53 21.3281 100.689 21.3281C100.898 21.3281 101.082 21.3811 101.242 21.4873C101.401 21.5936 101.522 21.7428 101.603 21.9361C101.684 22.1293 101.725 22.3408 101.725 22.5713C101.725 22.8185 101.68 23.0406 101.59 23.2383C101.501 23.4361 101.37 23.5876 101.199 23.6928C101.028 23.7981 100.848 23.8508 100.659 23.8508C100.521 23.8508 100.397 23.8219 100.287 23.7644C100.177 23.707 100.087 23.6341 100.017 23.5461V24.7213H99.6023ZM99.9773 22.6031C99.9773 22.9135 100.041 23.1433 100.169 23.2916C100.296 23.4399 100.45 23.5144 100.632 23.5144C100.816 23.5144 100.973 23.4373 101.105 23.2836C101.236 23.1298 101.301 22.8917 101.301 22.5687C101.301 22.2612 101.237 22.0308 101.109 21.878C100.981 21.7249 100.828 21.6485 100.65 21.6485C100.473 21.6485 100.317 21.7297 100.181 21.8927C100.045 22.0558 99.9773 22.2924 99.9773 22.6031Z" fill="#464748"/>
<path d="M103.899 23.019L104.327 23.0713C104.259 23.3185 104.134 23.5101 103.952 23.6465C103.769 23.783 103.536 23.851 103.252 23.851C102.894 23.851 102.61 23.7422 102.401 23.5249C102.191 23.3076 102.087 23.0026 102.087 22.6101C102.087 22.204 102.192 21.8888 102.404 21.6648C102.616 21.4407 102.891 21.3284 103.229 21.3284C103.556 21.3284 103.823 21.4381 104.03 21.658C104.237 21.8776 104.341 22.1867 104.341 22.5854C104.341 22.6094 104.34 22.6457 104.339 22.6945H102.515C102.531 22.9596 102.606 23.1625 102.743 23.3034C102.88 23.444 103.05 23.5146 103.254 23.5146C103.406 23.5146 103.536 23.4751 103.643 23.3965C103.751 23.3172 103.836 23.1917 103.899 23.019ZM102.538 22.3578H103.903C103.885 22.1546 103.833 22.0024 103.747 21.901C103.615 21.7434 103.443 21.6648 103.233 21.6648C103.043 21.6648 102.883 21.7277 102.753 21.8532C102.623 21.9787 102.551 22.1469 102.538 22.3578Z" fill="#464748"/>
</svg>
