<svg xmlns="http://www.w3.org/2000/svg" xmlns:xlink="http://www.w3.org/1999/xlink" viewBox="0 0 45.94 53.66"><defs><style>.cls-1,.cls-3{fill:none;}.cls-2{clip-path:url(#clip-path);}.cls-3{stroke:#424d79;stroke-linecap:round;stroke-linejoin:round;stroke-width:2px;}</style><clipPath id="clip-path" transform="translate(0 0)"><rect class="cls-1" width="45.94" height="53.66"/></clipPath></defs><g id="Layer_2" data-name="Layer 2"><g id="Layer_1-2" data-name="Layer 1"><g class="cls-2"><path class="cls-3" d="M29.55,16.4a6.58,6.58,0,1,0-13.16,0v4.15m5.28,8.7a2.5,2.5,0,1,1,2.6,0h0v3a1.3,1.3,0,1,1-2.6,0Zm11.72,6.83H12.55V21.25H33.39ZM4.56,29.5v3.56M14.37,5.15a17.29,17.29,0,0,1-9.81,8.19v12.6M16.44,43.39,23,48l10.69-7.56M11.72,1l-.91,1.68A17.29,17.29,0,0,1,1,10.86V37.12L23,52.66l22-15.54V10.86a17.23,17.23,0,0,1-9.81-8.18L34.22,1Z" transform="translate(0 0)"/></g></g></g></svg>
