<svg xmlns="http://www.w3.org/2000/svg" xmlns:xlink="http://www.w3.org/1999/xlink" viewBox="0 0 62.49 60.39"><defs><style>.cls-1,.cls-3{fill:none;}.cls-2{clip-path:url(#clip-path);}.cls-3{stroke:#424d79;stroke-linecap:round;stroke-linejoin:round;stroke-width:2px;}</style><clipPath id="clip-path" transform="translate(0 0)"><rect class="cls-1" width="62.49" height="60.39"/></clipPath></defs><g id="Layer_2" data-name="Layer 2"><g id="Layer_1-2" data-name="Layer 1"><g class="cls-2"><path class="cls-3" d="M36.23,19.59l1.52-.87M56.18,8.07,57.7,7.2m-21.47,0,1.52.87M56.18,18.72l1.52.87M47,1V2.75M47,24v1.75M53.42,13.4A6.46,6.46,0,1,1,47,6.94,6.46,6.46,0,0,1,53.42,13.4Zm-51.6,46H61.49M16,52.22,5.43,41.68M10,59.39l6.13-7.17H43.74L49.52,59M16.16,28.82l3,22.89M10.21,29.59c-1.07-8.3.72-15.37,4-15.8s6.81,6,7.88,14.26m-21,2.71a15.15,15.15,0,0,1,30.06-3.88Z" transform="translate(0 0)"/></g></g></g></svg>
