<svg xmlns="http://www.w3.org/2000/svg" xmlns:xlink="http://www.w3.org/1999/xlink" viewBox="0 0 72.68 56.82"><defs><style>.cls-1,.cls-3{fill:none;}.cls-2{clip-path:url(#clip-path);}.cls-3{stroke:#424d79;stroke-linecap:round;stroke-linejoin:round;stroke-width:2px;}</style><clipPath id="clip-path" transform="translate(0 0)"><rect class="cls-1" width="72.68" height="56.82"/></clipPath></defs><g id="Layer_2" data-name="Layer 2"><g id="Layer_1-2" data-name="Layer 1"><g class="cls-2"><path class="cls-3" d="M11.7,33.68V47.33M16.51,31.6a7.92,7.92,0,0,1-4.81,1.73C5.79,33.33,1,26.09,1,17.16S5.79,1,11.7,1,22.39,8.24,22.39,17.16M58.44,42.62a13.22,13.22,0,0,1,13.24,13.2H58.44ZM16.59,46a9.8,9.8,0,0,0-9.81,9.79h9.81ZM58.44,29.15V55.82H16.59V29.15m4.65,0L37.52,12.92,53.79,29.15m-32.55,0H10.78L37.52,2.49,64.25,29.15H53.79M30.54,54.66V43.07a7,7,0,0,1,14,0V54.66" transform="translate(0 0)"/></g></g></g></svg>
