<svg xmlns="http://www.w3.org/2000/svg" xmlns:xlink="http://www.w3.org/1999/xlink" viewBox="0 0 60.47 61.2"><defs><style>.cls-1,.cls-3{fill:none;}.cls-2{clip-path:url(#clip-path);}.cls-3{stroke:#424d79;stroke-linecap:round;stroke-linejoin:round;stroke-width:2px;}</style><clipPath id="clip-path" transform="translate(0 0)"><rect class="cls-1" width="60.47" height="61.2"/></clipPath></defs><g id="Layer_2" data-name="Layer 2"><g id="Layer_1-2" data-name="Layer 1"><g class="cls-2"><path class="cls-3" d="M35.22,38.68a2.92,2.92,0,0,1-2.51,1.16,3.06,3.06,0,0,1-2.35-1m17.51-24.5A4,4,0,0,1,44.44,16a4.2,4.2,0,0,1-3.23-1.3M20.77,18.55a4,4,0,0,1-3.43,1.59,4.25,4.25,0,0,1-3.23-1.3M25.73,45.9l-6.29-4.6a2.38,2.38,0,0,0-2.81,3.83L23,49.78a9.79,9.79,0,0,0-.81,4.06V60.2h21.2V53.84a10.35,10.35,0,0,0-.58-3.44l6.67-4.94a2.37,2.37,0,1,0-2.8-3.83l-6.23,4.89A9.83,9.83,0,0,0,38,44.6a9.9,9.9,0,0,1-10.38,0A14.19,14.19,0,0,0,25.73,45.9ZM39,44.78h3.57m7.89,0h9v-9a14.92,14.92,0,0,0-7.62-13,13.92,13.92,0,0,1-14.61,0,15.17,15.17,0,0,0-5.52,5.39c-.11.19-.22.38-.32.57M54.49,11A9.95,9.95,0,1,1,44.54,1,10,10,0,0,1,54.49,11ZM28.77,29.58a16.65,16.65,0,0,0-3.28-2.42,15.33,15.33,0,0,1-16.09,0A16.44,16.44,0,0,0,1,41.5v9.86H22.19m6.22-37.27a11,11,0,1,1-11-11A11,11,0,0,1,28.41,14.09ZM39.85,36.18a7.06,7.06,0,1,1-7.06-7.07A7.06,7.06,0,0,1,39.85,36.18Z" transform="translate(0 0)"/></g></g></g></svg>
