<svg xmlns="http://www.w3.org/2000/svg" xmlns:xlink="http://www.w3.org/1999/xlink" viewBox="0 0 58.36 61.71"><defs><style>.cls-1,.cls-3{fill:none;}.cls-2{clip-path:url(#clip-path);}.cls-3{stroke:#424d79;stroke-linecap:round;stroke-linejoin:round;stroke-width:2px;}</style><clipPath id="clip-path" transform="translate(0 0)"><rect class="cls-1" width="58.36" height="61.71"/></clipPath></defs><g id="Layer_2" data-name="Layer 2"><g id="Layer_1-2" data-name="Layer 1"><g class="cls-2"><path class="cls-3" d="M46.21,35.11A3.09,3.09,0,1,0,49.3,32,3.09,3.09,0,0,0,46.21,35.11Zm-.94,4.17a4,4,0,0,1,1.18-2.86m5.65,0a4,4,0,0,1,1.22,2.89V54.46M13.46,19c1,0,3.39-1.71,3.39-1.71S19.42,19,20.24,19M11.79,41.36a3.08,3.08,0,1,1-3.08-3.09A3.08,3.08,0,0,1,11.79,41.36Zm.94,4.16a4.05,4.05,0,0,0-1.17-2.85m-5.66,0a4.08,4.08,0,0,0-1.21,2.89V60.71m29-17.35H57.36V34.69A14.44,14.44,0,0,0,50,22.1a13.39,13.39,0,0,1-14.08,0,14.37,14.37,0,0,0-5.32,5.21,13.87,13.87,0,0,0-1,1.93M52.57,10.63A9.6,9.6,0,1,1,43,1,9.61,9.61,0,0,1,52.57,10.63Zm-28,15.67a14.73,14.73,0,0,1-15.52,0A15.92,15.92,0,0,0,1,40.18v9.54H32.7V40.18A15.92,15.92,0,0,0,24.61,26.3Zm2.81-12.64A10.57,10.57,0,1,1,16.85,3.06,10.59,10.59,0,0,1,27.42,13.66Z" transform="translate(0 0)"/></g></g></g></svg>
