<svg xmlns="http://www.w3.org/2000/svg" xmlns:xlink="http://www.w3.org/1999/xlink" viewBox="0 0 58.79 49.61"><defs><style>.cls-1,.cls-6{fill:none;}.cls-2{clip-path:url(#clip-path);}.cls-3{opacity:0.3;}.cls-4{clip-path:url(#clip-path-3);}.cls-5{fill:#8b93b0;}.cls-6{stroke:#424d79;stroke-linecap:round;stroke-linejoin:round;stroke-width:1.5px;}</style><clipPath id="clip-path" transform="translate(0 0)"><rect class="cls-1" width="58.79" height="49.61"/></clipPath><clipPath id="clip-path-3" transform="translate(0 0)"><rect class="cls-1" x="-9" y="11.65" width="48.97" height="38.97"/></clipPath></defs><g id="Layer_2" data-name="Layer 2"><g id="Layer_1-2" data-name="Layer 1"><g class="cls-2"><g class="cls-2"><g class="cls-3"><g class="cls-4"><path class="cls-5" d="M15.48,49.61A15.48,15.48,0,1,0,0,34.13,15.48,15.48,0,0,0,15.48,49.61" transform="translate(0 0)"/></g></g><path class="cls-6" d="M18.76,22.29v9m3.16-10.37a5.15,5.15,0,0,1-3.16,1.14c-3.87,0-7-4.77-7-10.66S14.89.75,18.76.75s7,4.77,7,10.65m23.6,16.78A8.69,8.69,0,0,1,58,36.88H49.37ZM22,30.43a6.44,6.44,0,0,0-6.43,6.45H22Zm27.4-11.12V36.88H22V19.31m3,0L35.67,8.61l10.66,10.7M25,19.31H18.16L35.67,1.73,53.18,19.31H46.33M31.1,36.12V28.48a4.57,4.57,0,1,1,9.14,0v7.64" transform="translate(0 0)"/></g></g></g></g></svg>
