<svg xmlns="http://www.w3.org/2000/svg" xmlns:xlink="http://www.w3.org/1999/xlink" viewBox="0 0 51.3 47.19"><defs><style>.cls-1,.cls-6{fill:none;}.cls-2{clip-path:url(#clip-path);}.cls-3{opacity:0.3;}.cls-4{clip-path:url(#clip-path-3);}.cls-5{fill:#8b93b0;}.cls-6{stroke:#424d79;stroke-linecap:round;stroke-linejoin:round;stroke-width:1.5px;}</style><clipPath id="clip-path" transform="translate(0 0)"><rect class="cls-1" width="51.3" height="47.19"/></clipPath><clipPath id="clip-path-3" transform="translate(0 0)"><rect class="cls-1" x="-9" y="9.22" width="48.97" height="38.97"/></clipPath></defs><g id="Layer_2" data-name="Layer 2"><g id="Layer_1-2" data-name="Layer 1"><g class="cls-2"><g class="cls-2"><g class="cls-3"><g class="cls-4"><path class="cls-5" d="M15.48,47.19A15.49,15.49,0,1,0,0,31.71,15.48,15.48,0,0,0,15.48,47.19" transform="translate(0 0)"/></g></g><path class="cls-6" d="M18.91,21.78v-4.3a7.18,7.18,0,0,1,3.57-6.25,6.4,6.4,0,0,0,6.84,0,7.18,7.18,0,0,1,3.06,3.54M21.24,5.53a4.66,4.66,0,1,0,9.32,0,4.66,4.66,0,1,0-9.32,0ZM30.89,23V20.2a7.94,7.94,0,0,1,3.94-6.89,7,7,0,0,0,7.54,0A7.93,7.93,0,0,1,46.3,20.2v1.3M33.46,7A5.14,5.14,0,1,0,43.73,7,5.14,5.14,0,1,0,33.46,7ZM19,28.14V24.55H15.92V36.67H19V33.08m19.71-4.94L47.46,24a2.15,2.15,0,0,1,2.76.85A2.26,2.26,0,0,1,49.49,28l-10,6.19a13,13,0,0,1-10.34,1.49,33.85,33.85,0,0,0-9-1.22H19m0-7.63,3.82-1.5a5,5,0,0,1,3.74,0,13.81,13.81,0,0,0,5.23,1h5.17a1.8,1.8,0,0,1,0,3.59H28.65" transform="translate(0 0)"/></g></g></g></g></svg>
