<svg xmlns="http://www.w3.org/2000/svg" xmlns:xlink="http://www.w3.org/1999/xlink" viewBox="0 0 48.51 47.61"><defs><style>.cls-1,.cls-6,.cls-7{fill:none;}.cls-2{clip-path:url(#clip-path);}.cls-3{opacity:0.3;}.cls-4{clip-path:url(#clip-path-3);}.cls-5{fill:#8b93b0;}.cls-6,.cls-7{stroke:#424d79;stroke-linecap:round;stroke-linejoin:round;stroke-width:1.5px;}.cls-7{stroke-dasharray:6.87 6.87;}</style><clipPath id="clip-path" transform="translate(0 0)"><rect class="cls-1" width="48.51" height="47.61"/></clipPath><clipPath id="clip-path-3" transform="translate(0 0)"><rect class="cls-1" x="-9" y="9.65" width="48.97" height="38.97"/></clipPath></defs><g id="Layer_2" data-name="Layer 2"><g id="Layer_1-2" data-name="Layer 1"><g class="cls-2"><g class="cls-2"><g class="cls-3"><g class="cls-4"><path class="cls-5" d="M15.48,47.61A15.48,15.48,0,1,0,0,32.13,15.48,15.48,0,0,0,15.48,47.61" transform="translate(0 0)"/></g></g><path class="cls-6" d="M23.09,19.11a2,2,0,0,1-1.71.79,2.11,2.11,0,0,1-1.6-.64m9,7.62a8.12,8.12,0,0,0-3.39-3.64,7.61,7.61,0,0,1-8,0,8.17,8.17,0,0,0-4,5.47m13.42-12a5.44,5.44,0,1,1-5.44-5.45A5.44,5.44,0,0,1,26.87,16.75Zm16.48,1,2.12-3.47,2.29,3.08M26.48,36.81V27.18h5v9.36m0,0V23.82h5V34.7m0,0V20.46h5V30.54m-.6-22-.1.16a2.14,2.14,0,0,1-1.78,1h-.42A2.13,2.13,0,0,1,36.55,7.5V5.1A2.13,2.13,0,0,1,38.68,3h.42a2.16,2.16,0,0,1,1.78.95l.1.16M35.07,7.41h3.69M35.07,5.19h3.69M43.94,6.3A5.55,5.55,0,1,1,38.39.75,5.54,5.54,0,0,1,43.94,6.3Z" transform="translate(0 0)"/><path class="cls-7" d="M10.43,20.86a17.65,17.65,0,0,1,2-10" transform="translate(0 0)"/><path class="cls-6" d="M29.16,1.66a17.69,17.69,0,0,1,4.36.94M14.27,8a18,18,0,0,1,2.42-2.44,17.3,17.3,0,0,1,3.77-2.38M14.3,30.26a17.11,17.11,0,0,1-1.9-2.86" transform="translate(0 0)"/><path class="cls-6" d="M45.57,18.34A17.35,17.35,0,0,1,29.38,36.83a17.75,17.75,0,0,1-16.3-8" transform="translate(0 0)"/></g></g></g></g></svg>
