<svg xmlns="http://www.w3.org/2000/svg" xmlns:xlink="http://www.w3.org/1999/xlink" viewBox="0 0 84.93 68.67"><defs><style>.cls-1{fill:none;}.cls-2{clip-path:url(#clip-path);}.cls-3{opacity:0.35;}.cls-4{clip-path:url(#clip-path-2);}.cls-5{fill:#8b93b0;}.cls-6{opacity:0.4;}.cls-7{clip-path:url(#clip-path-3);}.cls-8{fill:#424d79;}.cls-9{opacity:0.6;}.cls-10{clip-path:url(#clip-path-4);}.cls-11{clip-path:url(#clip-path-5);}</style><clipPath id="clip-path" transform="translate(0 0)"><rect class="cls-1" width="84.93" height="68.67"/></clipPath><clipPath id="clip-path-2" transform="translate(0 0)"><rect class="cls-1" x="-9" y="-7" width="102.93" height="76.67"/></clipPath><clipPath id="clip-path-3" transform="translate(0 0)"><rect class="cls-1" x="21.13" y="24.28" width="42.67" height="27.95"/></clipPath><clipPath id="clip-path-4" transform="translate(0 0)"><rect class="cls-1" x="-9" y="44.23" width="102.93" height="25.44"/></clipPath><clipPath id="clip-path-5" transform="translate(0 0)"><rect class="cls-1" x="17.15" y="-10.71" width="75.97" height="93.62"/></clipPath></defs><g id="Layer_2" data-name="Layer 2"><g id="Layer_1-2" data-name="Layer 1"><g class="cls-2"><g class="cls-3"><g class="cls-4"><polygon class="cls-5" points="42.47 0 0 68.67 84.93 68.67 42.47 0"/></g></g><g class="cls-6"><g class="cls-7"><polygon class="cls-8" points="42.47 31.28 30.13 51.23 54.8 51.23 42.47 31.28"/></g></g><g class="cls-9"><g class="cls-10"><polygon class="cls-5" points="30.13 51.23 0 68.67 84.93 68.67 54.8 51.23 30.13 51.23"/></g></g><g class="cls-3"><g class="cls-11"><polygon class="cls-5" points="42.47 31.28 54.8 51.23 84.93 68.67 42.46 0 42.47 31.28"/></g></g></g><rect class="cls-1" width="84.93" height="68.67"/></g></g></svg>
