<?xml version="1.0" standalone="no"?>
<!DOCTYPE svg PUBLIC "-//W3C//DTD SVG 20010904//EN"
 "http://www.w3.org/TR/2001/REC-SVG-20010904/DTD/svg10.dtd">
<svg version="1.0" xmlns="http://www.w3.org/2000/svg"
 width="700.000000pt" height="700.000000pt" viewBox="0 0 700.000000 700.000000"
 preserveAspectRatio="xMidYMid meet">
<metadata>
Created by potrace 1.11, written by Peter Selinger 2001-2013
</metadata>
<g transform="translate(0.000000,700.000000) scale(0.100000,-0.100000)"
fill="#000000" stroke="none">
<path d="M399 6734 c-56 -17 -132 -82 -162 -138 l-22 -41 -2 -3147 c-3 -3057
-2 -3149 16 -3197 29 -77 89 -134 167 -160 l64 -21 3104 0 c2317 0 3117 3
3155 12 67 15 137 70 175 138 l31 55 0 3145 c0 2511 -3 3153 -13 3187 -16 54
-83 126 -147 157 l-50 25 -3135 0 c-2675 0 -3142 -2 -3181 -15z m5971 -3344
l0 -2800 -260 0 c-143 0 -260 4 -260 8 0 5 4 33 9 63 9 50 16 98 27 189 2 19
6 49 8 65 3 17 8 57 11 90 4 33 8 76 11 95 2 19 6 67 9 105 4 39 8 88 10 110
18 183 23 673 11 980 -12 288 -23 430 -52 675 -9 78 -38 272 -49 335 -181 963
-552 1549 -1165 1839 -144 68 -381 140 -535 162 -27 3 -59 8 -70 10 -110 22
-593 25 -725 5 -408 -61 -815 -247 -1184 -541 -159 -127 -384 -347 -490 -480
-37 -47 -74 -93 -81 -102 -88 -108 -246 -383 -304 -530 -30 -75 -80 -239 -86
-281 -36 -236 -22 -404 45 -566 88 -215 259 -377 510 -483 84 -36 233 -82 300
-93 19 -3 42 -8 50 -10 16 -4 82 -12 203 -24 93 -8 351 -7 457 3 41 4 135 16
209 27 73 11 134 19 136 17 2 -3 -10 -126 -20 -186 -36 -230 -95 -426 -202
-672 -104 -239 -320 -564 -503 -756 l-52 -54 -784 0 -784 0 0 2800 0 2800
2800 0 2800 0 0 -2800z m-2380 1415 c149 -26 181 -33 243 -50 308 -82 552
-258 731 -528 71 -106 186 -329 186 -359 0 -8 4 -18 8 -23 27 -30 131 -389
158 -545 2 -8 6 -31 10 -50 4 -19 8 -39 8 -45 1 -5 5 -30 10 -55 14 -82 17
-98 31 -207 3 -21 7 -63 10 -93 3 -30 8 -66 10 -80 4 -22 7 -57 20 -235 25
-330 25 -943 0 -1230 -6 -80 -22 -234 -30 -295 -3 -19 -7 -53 -10 -75 -2 -22
-14 -102 -25 -178 -11 -77 -20 -145 -20 -153 0 -12 -171 -14 -1155 -14 l-1155
0 63 93 c91 135 118 181 179 292 53 100 62 117 113 230 74 164 164 433 191
570 2 11 6 31 9 45 35 163 58 369 64 561 1 23 11 30 98 64 227 90 518 261 629
370 59 59 78 105 77 190 -2 176 -170 294 -337 237 -28 -10 -87 -45 -131 -79
-206 -158 -506 -288 -848 -368 -59 -14 -125 -28 -145 -31 -20 -3 -62 -9 -92
-14 -110 -19 -199 -25 -390 -25 -172 0 -228 5 -350 30 -14 3 -34 7 -45 9 -11
2 -49 14 -85 26 -162 54 -263 138 -299 246 -32 98 -19 268 31 392 6 15 14 36
18 47 18 50 107 217 154 290 102 157 323 408 459 522 253 213 506 364 752 449
95 33 224 64 298 71 34 3 64 7 66 9 6 5 455 -4 491 -11z"/>
<path d="M3320 4250 c-93 -17 -180 -84 -228 -174 -23 -44 -27 -63 -27 -141 0
-75 4 -98 24 -138 33 -67 90 -123 159 -155 73 -35 191 -37 262 -5 56 25 131
97 159 151 43 85 43 209 0 294 -62 121 -213 194 -349 168z"/>
</g>
</svg>
